/* XPM */
static char *noname[] = {
/* width height ncolors chars_per_pixel */
"57 85 3 1",
/* colors */
"  c #000000",
". c red",
"X c None",
/* pixels */
"XXXX                                                 XXXX",
"XX  XXXXXXXXXXXXXXXXXXXXXXXXXXXXXXXXXXXXXXXXXXXXXXXXX  XX",
"X X XXX XXX XXX XXX XXX XXX XXX XXX XXX XXX XXX XXX XXX X",
"X XXXXXXXXXXXXXXXXXXXXXXXXXXXXXXXXXXXXXXXXXXXXXXXXXXXXX X",
" XXXX XXXXXXX XXXXXXX XXXXXXX XXXXXXX XXXXXXX XXXXXXX XX ",
" XXXXXXXXXXXXXXXXXXXXXXXXXXXXXXXXXXXXXXXXXXXXXXXXXXXXXXX ",
" XX XXX XXX XXX XXX XXX XXX XXX XXX XXX XXX XXX XXX XXX  ",
" XXXXXXXXXXXXXXXXXXXXXXXXXXXXXXXXXXXXXXXXXXXXXXXXXXXXXXX ",
"  XXXXXXX XXXXXXX XXXXXXX XXXXXXX XXXXXXX XXXXXXX XXXXXX ",
" XXXXXXXXXXXXXXXXXXXXXXXXXXXXXXXXXXXXXXXXXXXXXXXXXXXXXXX ",
" XX XXX XXX XXX XXX XXX XXX XXX XXX XXX XXX XXX XXX XXX  ",
" XXXXXXXXXXXXXXXXXXXXXXXXXXXXXXXXXXXXXXXXXXXXXXXXXXXXXXX ",
" XXXX XXXXXXX XXXXXXX XXXXXXX XXXXXXX XXXXXXX XXXXXXX XX ",
" XXXXXXXXXXXXXXXXXXXXXXXXXXXXXXXXXXXXXXXXXXXXXXXXXXXXXXX ",
" XX XXX XXX XXX XXX XXX XXX XXX XXX XXX XXX XXX XXX XXX  ",
" XXXXXXXXXXXXXXXXXXXXXXXXXXXXXXXXXXXXXXXXXXXXXXXXXXXXXXX ",
"  XXXXXXX XXXXXXX XXXXXXX XXXXXXX XXXXXXX XXXXXXX XXXXXX ",
" XXXXXXXXXXXXXXXXXXXXXXXXXXXXXXXXXXXXXXXXXXXXXXXXXXXXXXX ",
" XX XXX XXX XXX XXX XXX XXX XXX XXX XXX XXX XXX XXX XXX  ",
" XXXXXXXXXXXXXXXXXXXXXXXXXXXXXXXXXXXXXXXXXXXXXXXXXXXXXXX ",
" XXXX XXXXXXX XXXXXXX XXXXXXX XXXXXXX XXXXXXX XXXXXXX XX ",
" XXXXXXXXXXXXXXXXXXXXXXXXXXXXXXXXXXXXXXXXXXXXXXXXXXXXXXX ",
" XX XXX XXX XXX XXX XXX XXX XXX XXX XXX XXX XXX XXX XXX  ",
" XXXXXXXXXXXXXXXXXXXXXXXXXXXXXXXXXXXXXXXXXXXXXXXXXXXXXXX ",
"  XXXXXXX XXXXXXX XXXXXXX XX.XXXX XXXXXXX XXXXXXX XXXXXX ",
" XXXXXXXXXXXXXXXXXXXXXXXXXXX.XXXXXXXXXXXXXXXXXXXXXXXXXXX ",
" XX XXX XXX XXX XXX XXX XXX...X XXX XXX XXX XXX XXX XXX  ",
" XXXXXXXXXXXXXXXXXXXXXXXXX.....XXXXXXXXXXXXXXXXXXXXXXXXX ",
" XXXX XXXXXXX XXXXXXX XXXX.....XXXXXX XXXXXXX XXXXXXX XX ",
" XXXXXXXXXXXXXXXXXXXXXXXX.......XXXXXXXXXXXXXXXXXXXXXXXX ",
" XX XXX XXX XXX XXX XXX .........XX XXX XXX XXX XXX XXX  ",
" XXXXXXXXXXXXXXXXXXXXXXX.........XXXXXXXXXXXXXXXXXXXXXXX ",
"  XXXXXXX XXXXXXX XXXXX...........XXXXXXX XXXXXXX XXXXXX ",
" XXXXXXXXXXXXXXXXXXXXX.............XXXXXXXXXXXXXXXXXXXXX ",
" XX XXX XXX XXX XXX X...............XXX XXX XXX XXX XXX  ",
" XXXXXXXXXXXXXXXXXXX.................XXXXXXXXXXXXXXXXXXX ",
" XXXX XXXXXXX XXXXX...................XXXXXXX XXXXXXX XX ",
" XXXXXXXXXXXXXXXXX.....................XXXXXXXXXXXXXXXXX ",
" XX XXX XXX XXX X.......................XXX XXX XXX XXX  ",
" XXXXXXXXXXXXXXX.........................XXXXXXXXXXXXXXX ",
"  XXXXXXX XXXXX...........................XXXXXXX XXXXXX ",
" XXXXXXXXXXXXX.............................XXXXXXXXXXXXX ",
" XX XXX XXX X...............................XXX XXX XXX  ",
" XXXXXXXXXXXXX.............................XXXXXXXXXXXXX ",
" XXXX XXXXXXX X...........................XXX XXXXXXX XX ",
" XXXXXXXXXXXXXXX.........................XXXXXXXXXXXXXXX ",
" XX XXX XXX XXX X.......................XXX XXX XXX XXX  ",
" XXXXXXXXXXXXXXXXX.....................XXXXXXXXXXXXXXXXX ",
"  XXXXXXX XXXXXXX X...................XXX XXXXXXX XXXXXX ",
" XXXXXXXXXXXXXXXXXXX.................XXXXXXXXXXXXXXXXXXX ",
" XX XXX XXX XXX XXX X...............XXX XXX XXX XXX XXX  ",
" XXXXXXXXXXXXXXXXXXXXX.............XXXXXXXXXXXXXXXXXXXXX ",
" XXXX XXXXXXX XXXXXXX X...........XXX XXXXXXX XXXXXXX XX ",
" XXXXXXXXXXXXXXXXXXXXXXX.........XXXXXXXXXXXXXXXXXXXXXXX ",
" XX XXX XXX XXX XXX XXX .........XX XXX XXX XXX XXX XXX  ",
" XXXXXXXXXXXXXXXXXXXXXXXX.......XXXXXXXXXXXXXXXXXXXXXXXX ",
"  XXXXXXX XXXXXXX XXXXXXX .....XX XXXXXXX XXXXXXX XXXXXX ",
" XXXXXXXXXXXXXXXXXXXXXXXXX.....XXXXXXXXXXXXXXXXXXXXXXXXX ",
" XX XXX XXX XXX XXX XXX XXX...X XXX XXX XXX XXX XXX XXX  ",
" XXXXXXXXXXXXXXXXXXXXXXXXXXX.XXXXXXXXXXXXXXXXXXXXXXXXXXX ",
" XXXX XXXXXXX XXXXXXX XXXXXX. XXXXXXX XXXXXXX XXXXXXX XX ",
" XXXXXXXXXXXXXXXXXXXXXXXXXXXXXXXXXXXXXXXXXXXXXXXXXXXXXXX ",
" XX XXX XXX XXX XXX XXX XXX XXX XXX XXX XXX XXX XXX XXX  ",
" XXXXXXXXXXXXXXXXXXXXXXXXXXXXXXXXXXXXXXXXXXXXXXXXXXXXXXX ",
"  XXXXXXX XXXXXXX XXXXXXX XXXXXXX XXXXXXX XXXXXXX XXXXXX ",
" XXXXXXXXXXXXXXXXXXXXXXXXXXXXXXXXXXXXXXXXXXXXXXXXXXXXXXX ",
" XX XXX XXX XXX XXX XXX XXX XXX XXX XXX XXX XXX XXX XXX  ",
" XXXXXXXXXXXXXXXXXXXXXXXXXXXXXXXXXXXXXXXXXXXXXXXXXXXXXXX ",
" XXXX XXXXXXX XXXXXXX XXXXXXX XXXXXXX XXXXXXX XXXXXXX XX ",
" XXXXXXXXXXXXXXXXXXXXXXXXXXXXXXXXXXXXXXXXXXXXXXXXXXXXXXX ",
" XX XXX XXX XXX XXX XXX XXX XXX XXX XXX XXX XXX XXX XXX  ",
" XXXXXXXXXXXXXXXXXXXXXXXXXXXXXXXXXXXXXXXXXXXXXXXXXXXXXXX ",
"  XXXXXXX XXXXXXX XXXXXXX XXXXXXX XXXXXXX XXXXXXX XXXXXX ",
" XXXXXXXXXXXXXXXXXXXXXXXXXXXXXXXXXXXXXXXXXXXXXXXXXXXXXXX ",
" XX XXX XXX XXX XXX XXX XXX XXX XXX XXX XXX XXX XXX XXX  ",
" XXXXXXXXXXXXXXXXXXXXXXXXXXXXXXXXXXXXXXXXXXXXXXXXXXXXXXX ",
" XXXX XXXXXXX XXXXXXX XXXXXXX XXXXXXX XXXXXXX XXXXXXX XX ",
" XXXXXXXXXXXXXXXXXXXXXXXXXXXXXXXXXXXXXXXXXXXXXXXXXXXXXXX ",
" XX XXX XXX XXX XXX XXX XXX XXX XXX XXX XXX XXX XXX XXX  ",
" XXXXXXXXXXXXXXXXXXXXXXXXXXXXXXXXXXXXXXXXXXXXXXXXXXXXXXX ",
"  XXXXXXX XXXXXXX XXXXXXX XXXXXXX XXXXXXX XXXXXXX XXXXXX ",
"X XXXXXXXXXXXXXXXXXXXXXXXXXXXXXXXXXXXXXXXXXXXXXXXXXXXXX X",
"X X XXX XXX XXX XXX XXX XXX XXX XXX XXX XXX XXX XXX XXX X",
"XX  XXXXXXXXXXXXXXXXXXXXXXXXXXXXXXXXXXXXXXXXXXXXXXXXX  XX",
"XXXX                                                 XXXX"
};
