/* XPM */
static char *Background[] = {
/* width height num_colors chars_per_pixel */
"    64    64        5            1",
/* colors */
". c #c0c0c0",
"# c #cfcfcf",
"a c #dfdfdf",
"b c #efefef",
"c c #ffffff",
/* pixels */
"#...............bccccccccccccccccccccccccccccccccccccccccca.....",
"c................ccccccccccccccccccccccccccccccccccccccccc.....a",
"cc................ccccccccccccccccccccccccccccccccccccccc.....#c",
"ccb...............#ccccccccccccccccccccccccccccccccccccc......cc",
"ccc#...............bccccccccccccccccccccccccccccccccccc#.....ccc",
"cccc................ccccccccccccccccccccccccccccccccccb.....bccc",
"ccccc................ccccccccccccccccccccccccccccccccc.....acccc",
"cccccb...............#ccccccccccccccccccccccccccccccc.....#ccccc",
"cccccc#...............bccccccccccccccccccccccccccccc......cccccc",
"ccccccc................cccccccccccccccccccccccccccc#.....ccccccc",
"cccccccc................ccccccccccccccccccccccccccb.....bccccccc",
"ccccccccb...............#ccccccccccccccccccccccccc.....acccccccc",
"ccccccccc#...............bccccccccccccccccccccccc.....#ccccccccc",
"cccccccccc................cccccccccccccccccccccc......cccccccccc",
"ccccccccccc................cccccccccccccccccccc#.....ccccccccccc",
"cccccccccccb...............#ccccccccccccccccccb.....bccccccccccc",
"cccccccccccc#...............bccccccccccccccccc.....acccccccccccc",
"ccccccccccccc................cccccccccccccccc......ccccccccccccc",
"cccccccccccccc................cccccccccccccc......cccccccccccccc",
"ccccccccccccccb...............#cccccccccccc#.....ccccccccccccccc",
"ccccccccccccccc#...............bccccccccccb.....bccccccccccccccc",
"cccccccccccccccc................cccccccccc.....#cccccccccccccccc",
"ccccccccccccccccc................cccccccc......ccccccccccccccccc",
"cccccccccccccccccb...............#cccccc......cccccccccccccccccc",
"cccccccccccccccccc#...............bcccc#.....ccccccccccccccccccc",
"ccccccccccccccccccc................cccb.....bccccccccccccccccccc",
"cccccccccccccccccccc................cc.....#cccccccccccccccccccc",
"ccccccccccccccccccccb..............ac......ccccccccccccccccccccc",
"ccccccccccccccccccccc#............#c......cccccccccccccccccccccc",
"cccccccccccccccccccccc............c#.....ccccccccccccccccccccccc",
"ccccccccccccccccccccccc..........cb.....bccccccccccccccccccccccc",
"cccccccccccccccccccccccb........bc......cccccccccccccccccccccccc",
"cccccccccccccccccccccccc#......ac.......bccccccccccccccccccccccc",
"ccccccccccccccccccccccccc......c.........ccccccccccccccccccccccc",
"cccccccccccccccccccccccc......c#..........cccccccccccccccccccccc",
"ccccccccccccccccccccccc#.....cb...........#ccccccccccccccccccccc",
"ccccccccccccccccccccccb.....bc.............bcccccccccccccccccccc",
"cccccccccccccccccccccc.....#c...............cccccccccccccccccccc",
"ccccccccccccccccccccc......cc................ccccccccccccccccccc",
"cccccccccccccccccccc......cccb...............#cccccccccccccccccc",
"ccccccccccccccccccc#.....ccccc#...............bccccccccccccccccc",
"ccccccccccccccccccb.....bcccccc................ccccccccccccccccc",
"cccccccccccccccccc.....#cccccccc................cccccccccccccccc",
"ccccccccccccccccc......cccccccccb...............#ccccccccccccccc",
"cccccccccccccccc......ccccccccccc#...............bcccccccccccccc",
"ccccccccccccccc#.....ccccccccccccc................cccccccccccccc",
"ccccccccccccccb.....bcccccccccccccc................ccccccccccccc",
"cccccccccccccc.....#cccccccccccccccb...............#cccccccccccc",
"ccccccccccccc......ccccccccccccccccc#...............bccccccccccc",
"cccccccccccc......ccccccccccccccccccc................ccccccccccc",
"ccccccccccc#.....ccccccccccccccccccccc................cccccccccc",
"ccccccccccb.....bcccccccccccccccccccccb...............#ccccccccc",
"cccccccccc.....#ccccccccccccccccccccccc#...............bcccccccc",
"ccccccccc......ccccccccccccccccccccccccc................cccccccc",
"cccccccc......ccccccccccccccccccccccccccc................ccccccc",
"ccccccc#.....ccccccccccccccccccccccccccccb...............#cccccc",
"ccccccb.....bccccccccccccccccccccccccccccc#...............bccccc",
"cccccc.....#ccccccccccccccccccccccccccccccc................ccccc",
"ccccc......ccccccccccccccccccccccccccccccccc................cccc",
"cccc......ccccccccccccccccccccccccccccccccccb...............#ccc",
"ccc#.....cccccccccccccccccccccccccccccccccccc#...............bcc",
"ccb.....bccccccccccccccccccccccccccccccccccccc................cc",
"cc.....#ccccccccccccccccccccccccccccccccccccccc................c",
"c......ccccccccccccccccccccccccccccccccccccccccb...............#"
};
