/* XPM */
static char *Cardback1[] = {
/* width height num_colors chars_per_pixel */
"    79   123        8            1",
/* colors */
". c #3c495d",
"# c #6c6f73",
"a c #9d9689",
"b c #9da4ae",
"c c #cebd9f",
"d c #ced1d6",
"e c #ffe4b5",
"f c #ffffff",
/* pixels */
"fffffffffffffffffffffffffffffffffffffffffffffffffffffffffffffffffffffffffffffff",
"fffffffffffffffffffffffffffffffffffffffffffffffffffffffffffffffffffffffffffffff",
"fffffffffffffffffffffffffffffffffffffffffffffffffffffffffffffffffffffffffffffff",
"fffffffffffffffffffffffffffffffffffffffffffffffffffffffffffffffffffffffffffffff",
"fffffffffffffffffffffffffffffffffffffffffffffffffffffffffffffffffffffffffffffff",
"fffffffdb.............................................................bdfffffff",
"ffffffd.aeeeeeeeeeeeeeeeeeeeeeeeeeeeeeeeeeeeeeeeeeeeeeeeeeeeeeeeeeeeeea.dffffff",
"fffffd.ceeeeeeeeeeeeeeeeeeeeeeeeeeeeeeeeeeeeeeeeeeeeeeeeeeeeeeeeeeeeeeec.dfffff",
"fffffbae...............................................................eabfffff",
"fffff.ee.eeeeeeeeeeeeeeeeeeeeeeeeeeeeeeeeeeeeeeeeeeeeeeeeeeeeeeeeeeeee.ee.fffff",
"fffff.ee.eeeeeeeeeeeeeeeeeeeeeeeeeeeeeeeeeeeeeeeeeeeeeeeeeeeeeeeeeeeee.ee.fffff",
"fffff.ee.eeec#..#ceeec#...#ceeec#...#ceeec#...#ceeec#...#ceeec#..#ceee.ee.fffff",
"fffff.ee.eec.ceec##e##ceeec##e##ceeec##e##ceeec##e##ceeec##e##ceec.cee.ee.fffff",
"fffff.ee.ee#ceeeeee.eeeeeeeee.eeeeeeeee.eeeeeeeee.eeeeeeeee.eeeeeec#ee.ee.fffff",
"fffff.ee.ee.eeeec##e.ceeeeec.e.ceeeeec.e.ceeeeec.e.ceeeeec.e##ceeee.ee.ee.fffff",
"fffff.ee.ee.eeec.ceec.#cec#.cec.#cec#.cec.#cec#.cec.#cec#.ceec.ceee.ee.ee.fffff",
"fffff.ee.ee#cec.ceeeeea#.#aeeeeea#.#aeeeeea#.#aeeeeea#.#aeeeeec.cec#ee.ee.fffff",
"fffff.ee.eec#e#ceeeeeeeeeeeeeeeeeeeeeeeeeeeeeeeeeeeeeeeeeeeeeeec#e#cee.ee.fffff",
"fffff.ee.eee#e#eeeeeeeeeeeeeeeeeeeeeeeeeeeeeeeeeeeeeeeeeeeeeeeee#e#eee.ee.fffff",
"fffff.ee.eeee.eeeee.e.e.e.e.e.e.e.e.e.e.e.e.e.e.e.e.e.e.e.e.eeeee.eeee.ee.fffff",
"fffff.ee.eee#e.ceeeeeeeeeeeeeeeeeeeeeeeeeeeeeeeeeeeeeeeeeeeeeeec.e#eee.ee.fffff",
"fffff.ee.eec#ec.eee.eec....cee#ceeeeeee.eeeeeeec#eec....cee.eee.ce#cee.ee.fffff",
"fffff.ee.ee#cee#aeeeec#eeee#cee#ceeeeec.ceeeeec#eec#eeee#ceeeea#eec#ee.ee.fffff",
"fffff.ee.ee.eeec#ee.e.ec..ee.eee#aeeec#e#ceeea#eee.ee..ce.e.ee#ceee.ee.ee.fffff",
"fffff.ee.ee.eeee.eeee.e.eeee.eeeea....eee....aeeee.eeee.e.eeee.eeee.ee.ee.fffff",
"fffff.ee.ee.eeec#ee.e.e.cee#ceec##ceeeeeeeeec##ceec#eec.e.e.ee#ceee.ee.ee.fffff",
"fffff.ee.ee#cee#aeeee#cc...ceec#ceeeeeeeeeeeeec#ceec...cc#eeeea#eec#ee.ee.fffff",
"fffff.ee.eec#ec.eee.ec#eeeeeee#ceeeeee.e.eeeeeec#eeeeeee#ce.eee.ce#cee.ee.fffff",
"fffff.ee.eee#e.ceeeeee#ceeeeee.ee..aeec.ceea..ee.eeeeeec#eeeeeec.e#eee.ee.fffff",
"fffff.ee.eeee.eeeee.eee.eeeeee.ee.a.aee.eea.a.ee.eeeeee.eee.eeeee.eeee.ee.fffff",
"fffff.ee.eee#e.ceeeeee#a#eeeee.eeeec.ee.ee.ceeee.eeeee#a#eeeeeec.e#eee.ee.fffff",
"fffff.ee.eec#ec.eee.ee.e.eeeee.aeeee.ee.ee.eeeea.eeeee.e.ee.eee.ce#cee.ee.fffff",
"fffff.ee.ee#cee#aeeeeeee.eeeeec.eeec.ee.ee.ceee.ceeeee.eeeeeeea#eec#ee.ee.fffff",
"fffff.ee.ee.eeec#ee.ec.cc#eeeee#.ce#aea.aea#ec.#eeeee#cc.ce.ee#ceee.ee.ee.fffff",
"fffff.ee.ee.eeee.eeee.e.e.eeeeeec..aee.a.eea..ceeeeee.e.e.eeee.eeee.ee.ee.fffff",
"fffff.ee.ee.eeec#ee.e.e.e.eeeeeeeeeee##e##eeeeeeeeeee.e.e.e.ee#ceee.ee.ee.fffff",
"fffff.ee.ee#cee#aeeeec.cc.eee.eeeeee#.cec.#eeeeee.eee.cc.ceeeea#eec#ee.ee.fffff",
"fffff.ee.eec#ec.eee.eeee#aeee#.aeec##ceeec##ceea.#eeea#eeee.eee.ce#cee.ee.fffff",
"fffff.ee.eee#e.ceeeeeeee.eeeee#...#aeeeeeeea#...#eeeee.eeeeeeeec.e#eee.ee.fffff",
"fffff.ee.eeee.eeeee.eeec.eeeeeeeeeeeeeeeeeeeeeeeeeeeee.ceee.eeeee.eeee.ee.fffff",
"fffff.ee.eee#e.ceeeeeee.ceeeeeeeeeeeeeeeeeeeeeeeeeeeeec.eeeeeeec.e#eee.ee.fffff",
"fffff.ee.eec#ec.eee.e.#eeeeeeeeeeeeeeeeeeeeeeeeeeeeeeeee#.e.eee.ce#cee.ee.fffff",
"fffff.ee.ee#cee#aeeeeeeeeeeeeeeeeeeeeeeeeeeeeeeeeeeeeeeeeeeeeea#eec#ee.ee.fffff",
"fffff.ee.ee.eeec#ee.eeeeeeeeeeeeeeeeeeeeeeeeeeeeeeeeeeeeeee.ee#ceee.ee.ee.fffff",
"fffff.ee.ee.eeee.eeeeeeeeeeeeeeeeeeeeeeeeeeeeeeeeeeeeeeeeeeeee.eeee.ee.ee.fffff",
"fffff.ee.ee.eeec#ee.eeeeeeeeeeeee....ceeeeeeeeeeeeeeeeeeeee.ee#ceee.ee.ee.fffff",
"fffff.ee.ee#cee#aeeeeeeeeeeeeeeee.eec.eeeeeeeeeeeeeeeeeeeeeeeea#eec#ee.ee.fffff",
"fffff.ee.eec#ec.eee.eeeeeeeeeeeee.eee.e.eeeeeeeeeeeeeeeeeee.eee.ce#cee.ee.fffff",
"fffff.ee.eee#e.ceeeeeeeeeeeeeeeee.eec.eeeeeeeeeeeeeeeeeeeeeeeeec.e#eee.ee.fffff",
"fffff.ee.eeee.eeeee.eeeeeeeeeeeee....ee.ec...eeeeeeeeeeeeee.eeeee.eeee.ee.fffff",
"fffff.ee.eee#e.ceeeeeeeeeeeeeeeee.eec.e.e.ceeeeeeeeeeeeeeeeeeeec.e#eee.ee.fffff",
"fffff.ee.eec#ec.eee.eeeeeeeeeeeee.eee.e.e.eeeeeeeeeeeeeeeee.eee.ce#cee.ee.fffff",
"fffff.ee.ee#cee#aeeeeeec#...aeeee.eee.e.e.ceeeeeeea...#ceeeeeea#eec#ee.ee.fffff",
"fffff.ee.ee.eeec#ee.eec.ceec##eee.eee.e.ec...eeee##ceec.cee.ee#ceee.ee.ee.fffff",
"fffff.ee.ee.eeee.eeeee.eeeeee##eeeeeeeeeeeeeeeee##eeeeee.eeeee.eeee.ee.ee.fffff",
"fffff.ee.ee.eeec#ee.ee.eee.#ee##eeeeeeeeeeeeeee##ee#.eee.ee.ee#ceee.ee.ee.fffff",
"fffff.ee.ee#cee#aeeeeec.aee.eee#.aeeeeeeeeeeea.#eee.eea.ceeeeea#eec#ee.ee.fffff",
"fffff.ee.eec#ec.eee.eeec#..#eeeec.............ceeee#..#ceee.eee.ce#cee.ee.fffff",
"fffff.ee.eee#e.ceeeeeeeeeeeeeec..ceeeeeeeeeeec..ceeeeeeeeeeeeeec.e#eee.ee.fffff",
"fffff.ee.eeee.eeeee.eeeeeeeeec.cc..ceec.ceec..cc.ceeeeeeeee.eeeee.eeee.ee.fffff",
"fffff.ee.eee#e#eeeeeeeeeeeec..ceeee..e.e.e..eeeec..ceeeeeeeeeeee#e#eee.ee.fffff",
"fffff.ee.eee.e.eeee.e.e.e...ee..e..ee.e.e.ee..e..ee...e.e.e.eeee.e.eee.ee.fffff",
"fffff.ee.eee#e#eeeeeeeeeeeec..ceeee..e.e.e..eeeec..ceeeeeeeeeeee#e#eee.ee.fffff",
"fffff.ee.eeee.eeeee.eeeeeeeeec.cc..ceec.ceec..cc.ceeeeeeeee.eeeee.eeee.ee.fffff",
"fffff.ee.eee#e.ceeeeeeeeeeeeeec..ceeeeeeeeeeec..ceeeeeeeeeeeeeec.e#eee.ee.fffff",
"fffff.ee.eec#ec.eee.eeec#..#eeeec.............ceeee#..#ceee.eee.ce#cee.ee.fffff",
"fffff.ee.ee#cee#aeeeeec.aee.eee#.aeeeeeeeeeeea.#eee.eea.ceeeeea#eec#ee.ee.fffff",
"fffff.ee.ee.eeec#ee.ee.eee.#ee##eeeeeeeeeeeeeee##ee#.eee.ee.ee#ceee.ee.ee.fffff",
"fffff.ee.ee.eeee.eeeee.eeeeee##eeeeeeeeeeeeeeeee##eeeeee.eeeee.eeee.ee.ee.fffff",
"fffff.ee.ee.eeec#ee.eec.ceec##eeee...ce.e.eee.eee##ceec.cee.ee#ceee.ee.ee.fffff",
"fffff.ee.ee#cee#aeeeeeec#...aeeeeeeec.e.e.eee.eeeea...#ceeeeeea#eec#ee.ee.fffff",
"fffff.ee.eec#ec.eee.eeeeeeeeeeeeeeeee.e.e.eee.eeeeeeeeeeeee.eee.ce#cee.ee.fffff",
"fffff.ee.eee#e.ceeeeeeeeeeeeeeeeeeeec.e.e.cee.eeeeeeeeeeeeeeeeec.e#eee.ee.fffff",
"fffff.ee.eeee.eeeee.eeeeeeeeeeeeee...ce.ee....eeeeeeeeeeeee.eeeee.eeee.ee.fffff",
"fffff.ee.eee#e.ceeeeeeeeeeeeeeeeeeeeeeeee.cee.eeeeeeeeeeeeeeeeec.e#eee.ee.fffff",
"fffff.ee.eec#ec.eee.eeeeeeeeeeeeeeeeeee.e.eee.eeeeeeeeeeeee.eee.ce#cee.ee.fffff",
"fffff.ee.ee#cee#aeeeeeeeeeeeeeeeeeeeeeeee.cee.eeeeeeeeeeeeeeeea#eec#ee.ee.fffff",
"fffff.ee.ee.eeec#ee.eeeeeeeeeeeeeeeeeeeeec....eeeeeeeeeeeee.ee#ceee.ee.ee.fffff",
"fffff.ee.ee.eeee.eeeeeeeeeeeeeeeeeeeeeeeeeeeeeeeeeeeeeeeeeeeee.eeee.ee.ee.fffff",
"fffff.ee.ee.eeec#ee.eeeeeeeeeeeeeeeeeeeeeeeeeeeeeeeeeeeeeee.ee#ceee.ee.ee.fffff",
"fffff.ee.ee#cee#aeeeeeeeeeeeeeeeeeeeeeeeeeeeeeeeeeeeeeeeeeeeeea#eec#ee.ee.fffff",
"fffff.ee.eec#ec.eee.e.#eeeeeeeeeeeeeeeeeeeeeeeeeeeeeeeee#.e.eee.ce#cee.ee.fffff",
"fffff.ee.eee#e.ceeeeeee.ceeeeeeeeeeeeeeeeeeeeeeeeeeeeec.eeeeeeec.e#eee.ee.fffff",
"fffff.ee.eeee.eeeee.eeec.eeeeeeeeeeeeeeeeeeeeeeeeeeeee.ceee.eeeee.eeee.ee.fffff",
"fffff.ee.eee#e.ceeeeeeee.eeeee#...#aeeeeeeea#...#eeeee.eeeeeeeec.e#eee.ee.fffff",
"fffff.ee.eec#ec.eee.eeee#aeee#.aeec##ceeec##ceea.#eeea#eeee.eee.ce#cee.ee.fffff",
"fffff.ee.ee#cee#aeeeec.cc.eee.eeeeee#.cec.#eeeeee.eee.cc.ceeeea#eec#ee.ee.fffff",
"fffff.ee.ee.eeec#ee.e.e.e.eeeeeeeeeee##e##eeeeeeeeeee.e.e.e.ee#ceee.ee.ee.fffff",
"fffff.ee.ee.eeee.eeee.e.e.eeeeeec..aee.a.eea..ceeeeee.e.e.eeee.eeee.ee.ee.fffff",
"fffff.ee.ee.eeec#ee.ec.cc#eeeee#.ce#aea.aea#ec.#eeeee#cc.ce.ee#ceee.ee.ee.fffff",
"fffff.ee.ee#cee#aeeeeeee.eeeeec.eeec.ee.ee.ceee.ceeeee.eeeeeeea#eec#ee.ee.fffff",
"fffff.ee.eec#ec.eee.ee.e.eeeee.aeeee.ee.ee.eeeea.eeeee.e.ee.eee.ce#cee.ee.fffff",
"fffff.ee.eee#e.ceeeeee#a#eeeee.eeeec.ee.ee.ceeee.eeeee#a#eeeeeec.e#eee.ee.fffff",
"fffff.ee.eeee.eeeee.eee.eeeeee.ee.a.aee.eea.a.ee.eeeeee.eee.eeeee.eeee.ee.fffff",
"fffff.ee.eee#e.ceeeeee#ceeeeee.ee..aeec.ceea..ee.eeeeeec#eeeeeec.e#eee.ee.fffff",
"fffff.ee.eec#ec.eee.ec#eeeeeee#ceeeeee.e.eeeeeec#eeeeeee#ce.eee.ce#cee.ee.fffff",
"fffff.ee.ee#cee#aeeee#cc...ceec#ceeeeeeeeeeeeec#ceec...cc#eeeea#eec#ee.ee.fffff",
"fffff.ee.ee.eeec#ee.e.e.cee#ceec##ceeeeeeeeec##ceec#eec.e.e.ee#ceee.ee.ee.fffff",
"fffff.ee.ee.eeee.eeee.e.eeee.eeeea....eee....aeeee.eeee.e.eeee.eeee.ee.ee.fffff",
"fffff.ee.ee.eeec#ee.e.ec..ee.eee#aeeec#e#ceeea#eee.ee..ce.e.ee#ceee.ee.ee.fffff",
"fffff.ee.ee#cee#aeeeec#eeee#cee#ceeeeec.ceeeeec#eec#eeee#ceeeea#eec#ee.ee.fffff",
"fffff.ee.eec#ec.eee.eec....cee#ceeeeeee.eeeeeeec#eec....cee.eee.ce#cee.ee.fffff",
"fffff.ee.eee#e.ceeeeeeeeeeeeeeeeeeeeeeeeeeeeeeeeeeeeeeeeeeeeeeec.e#eee.ee.fffff",
"fffff.ee.eeee.eeeee.e.e.e.e.e.e.e.e.e.e.e.e.e.e.e.e.e.e.e.e.eeeee.eeee.ee.fffff",
"fffff.ee.eee#e#eeeeeeeeeeeeeeeeeeeeeeeeeeeeeeeeeeeeeeeeeeeeeeeee#e#eee.ee.fffff",
"fffff.ee.eec#e#ceeeeeeeeeeeeeeeeeeeeeeeeeeeeeeeeeeeeeeeeeeeeeeec#e#cee.ee.fffff",
"fffff.ee.ee#cec.ceeeeea#.#aeeeeea#.#aeeeeea#.#aeeeeea#.#aeeeeec.cec#ee.ee.fffff",
"fffff.ee.ee.eeec.ceec.#cec#.cec.#cec#.cec.#cec#.cec.#cec#.ceec.ceee.ee.ee.fffff",
"fffff.ee.ee.eeeec##e.ceeeeec.e.ceeeeec.e.ceeeeec.e.ceeeeec.e##ceeee.ee.ee.fffff",
"fffff.ee.ee#ceeeeee.eeeeeeeee.eeeeeeeee.eeeeeeeee.eeeeeeeee.eeeeeec#ee.ee.fffff",
"fffff.ee.eec.ceec##e##ceeec##e##ceeec##e##ceeec##e##ceeec##e##ceec.cee.ee.fffff",
"fffff.ee.eeec#..#ceeec#...#ceeec#...#ceeec#...#ceeec#...#ceeec#..#ceee.ee.fffff",
"fffff.ee.eeeeeeeeeeeeeeeeeeeeeeeeeeeeeeeeeeeeeeeeeeeeeeeeeeeeeeeeeeeee.ee.fffff",
"fffff.ee.eeeeeeeeeeeeeeeeeeeeeeeeeeeeeeeeeeeeeeeeeeeeeeeeeeeeeeeeeeeee.ee.fffff",
"fffffbae...............................................................eabfffff",
"fffffd.ceeeeeeeeeeeeeeeeeeeeeeeeeeeeeeeeeeeeeeeeeeeeeeeeeeeeeeeeeeeeeeec.dfffff",
"ffffffd.aeeeeeeeeeeeeeeeeeeeeeeeeeeeeeeeeeeeeeeeeeeeeeeeeeeeeeeeeeeeeea.dffffff",
"fffffffdb.............................................................bdfffffff",
"fffffffffffffffffffffffffffffffffffffffffffffffffffffffffffffffffffffffffffffff",
"fffffffffffffffffffffffffffffffffffffffffffffffffffffffffffffffffffffffffffffff",
"fffffffffffffffffffffffffffffffffffffffffffffffffffffffffffffffffffffffffffffff",
"fffffffffffffffffffffffffffffffffffffffffffffffffffffffffffffffffffffffffffffff",
"fffffffffffffffffffffffffffffffffffffffffffffffffffffffffffffffffffffffffffffff"
};
