/* XPM */
static char *Cardback5[] = {
/* width height num_colors chars_per_pixel */
"    79   123       54            1",
/* colors */
". c #402020",
"# c #501818",
"a c #581818",
"b c #601818",
"c c #683018",
"d c #683820",
"e c #684030",
"f c #704020",
"g c #803828",
"h c #903028",
"i c #783028",
"j c #783818",
"k c #784030",
"l c #784828",
"m c #984030",
"n c #785050",
"o c #802824",
"p c #804020",
"q c #884630",
"r c #884820",
"s c #885040",
"t c #985030",
"u c #985040",
"v c #986037",
"w c #986048",
"x c #986034",
"y c #b88870",
"z c #a85030",
"A c #a85040",
"B c #a86038",
"C c #b86047",
"D c #b86858",
"E c #b87048",
"F c #b87858",
"G c #c06868",
"H c #c07868",
"I c #c85040",
"J c #c87850",
"K c #c88870",
"L c #d07060",
"M c #d08871",
"N c #d87870",
"O c #d88058",
"P c #e08868",
"Q c #e09878",
"R c #e0a088",
"S c #e8a878",
"T c #e8b088",
"U c #f0a088",
"V c #f0b099",
"W c #f0c0a8",
"X c #f8b088",
"Y c #f8c098",
"Z c #f8d0a8",
/* pixels */
"vuwBBCCCEEEJEEEJGJJLJKKOPPPPPQQQQUPPPQQSUQQQSUQQSSSTTRQQQQQPMPODFCBvqqldc#.....",
"vuwBBCCCEEEJEEEJGJJLJKKOPPPPPQQQQUPPPQQSUQQQSUQQSSSTTRQQQQQPMPODFCBvqqldc#.....",
"vuvBBBDEEDEJGEGGJJJJJOJKOKPPQQQQQQQQSSUSSQQSSUQQQSSSSQQQQQQPMMOEFDCBtqrdcb#....",
"uvBBBCEEEGEJGEJJJJJLJOPPPPPPPQQQQQQQQUUTSSTQSSSSUSSSSRQQQQSQPMKKJGBBzqgpjb#....",
"vABBCCCDEJGEGJEJJGJJOKPPPPPPPPQSUQRQQTSSSTRTTUSRUUUUUTUSTPSSQQKKJGCButqpjb##...",
"tBBBCCCDEJEGEJGJJJJOOOPPPPPPPQPSSSUSSSSSUUSSSSSUSSSTSUUUSSSQQQPMJJEGutrpjc##...",
"tBBBCDDEJGEJJJJJJLJOJOPPPPPPQQQQQRTTTSTSTTSSSSTTTTSTUUSUTSPSQPPPJJGBBtqgjjbb...",
"tBBBBBEEJDEJDJJJHJOOOKPPPPPQQQSSSSUTTVTUUXUXTTSTTTTTTSSSSSSQQQQMKJGCGvtrpfb##..",
"vBBBBBEEGEJFJJHJJKOOOKPOPQQPQQSTSUUUVXTUXXUXTTTTUXXTXUXTSTTSSQPPKJJEBAtrpdc##..",
"uwBCCBECDJJJJOLOKKPPPPPPPQPUQSPSSTVXXXXTVVXVSSTVVXXVXXXXTUUUSSPQPKJJJBvrgjcb#..",
"uuBBBEECDJHJKJOLOOMPPMQQPQQQSUSTTTUTXTYXVTUUUUTVXTXXVXVVVTTSQSQPPOKKDCAtqjcb#..",
"vuBBBBEEJFKJJKJOOOOPMMQQQQQRQQSTTUVVXVVVVTTUUUTTVTTTXTVVTTSTSQQPPPKKJEAtrffb#..",
"uuBCBBBEJLDDJKOLPKOMMMPPPQPSTUUXTVUVTXTTTTUUUUTYTTVVVXXVVTTUSURQQQQMKDBvtgdbb..",
"tvBBBBECCBABBEFKNPLKKOPQQQQQSUVTTVVVVVUVVTSTTUUVVXXXXVVVTTTUUURSUQQPOJDCtrdbb..",
"vutABBCBAtBAABCDJOJLKPPMQPQQQSTSTUUXXVTTTTTTTUUVYXXXVTTTUUUUUUUSURNMMKJBtrjba..",
"vuwumqqrgfgddggsvBCFGKNPQQRQRQRSUTTVVVVVUVVTUTVVXVVYVXTVVUXVTTRTRQPMMJDBuqpj#..",
"tvtggrrpgfdccb#bdkquBDEKMPQQSSUTUVUTTTVXVVUTUUVVVTTVTTVVVVTUSSUQQNQLHBvqqmgcb..",
"vulqlqqrflpjcbbbbbcrtBABFMMQQRSUTUXTTTTUXTTTSVVVYYTTVTTTVTSRSUQQKGHGBuqgppjjb#.",
"ttqqmqtqttqtrdcba.###cdlquBKMQSURSUTUUUVVVVVTTTTVYVUVTSRTRQNKBButqggggqppcba...",
"tsttAABABBBvuttrldb####adfquDKRQSTTTTUTUVVTTTTVTTVVRSQMKHFBulfjlldfgqstrfd##...",
"tuuuuBBCBCBECBBAtrfc####bdfquFPQRQRRUTPTUUTTTTTVVVTRQMHBusqfdddfljqpshhtrpba...",
"BBBBCCCBEBDEFFFDDBBurldbaaddpuMQRQQQSSUSUUUVUUUXVTQKBtgldbdffprlqtvsvBBvvqjcb#.",
"BBBBBCDDDCCEDFDDDFCBwuuqgddlltHPQQMPRQRRSTTTVTTUUQMBqgddddjlhvBBFFFFKHFHBBtjc#.",
"BBBBBBDDCCCDDDBDDDBwwvvssqllqvFMQQMQQRQSUUTTXRTURMFugffdkrqtBBBFKKJKMMHKBBqdf#.",
"BBBBBBBBAAsqgfb#bbddffkqtuuuwBDHHMMMQQQSTUVVSSRRQMDuqqvwBvvBBEHHHKMKMMMHEBtpjc#",
"vwwwvvutf####.......affdbksvvBBDFKMMQQRRTTXTTTQRMMJEBBBwusqkppswBDHJHJFDDvskid#",
"BBBAussf###..........#lpd#luBBBBDHNMNQQSTTTTTSRQNMJJEDBufb#.###bfpswBBCBBuqgfda",
"BBAAsqf.##..........a..begbquBBBBDLMPQSTVVVVVRQPMKHFBugbc#........#####ckqlldbb",
"CBBttkf#....fn.##...aG.xbdsgpuuwBBFKMQQSTVYVTTQQKHDEBgif##...............#ddbb#",
"BBBAsgdb...fsh.#a..#dn#ysdtqqtvvBBJKMQRRTYWYVTQQMHJEBrgjfs.....#G.........bdcb#",
"EBButld..bcnyGa#aGneb#yyyhittvvwBBELMQTVVWYYXTRQHKJBtqkhBy#aa..#n..na......bbba",
"EDBButtgdbckxyy.#da##byyBuohvCBBBBEJMPSVYYZZYTRQMKHBvguByyGaGnbd..syna.....#bbb",
"EEEBBBvpld#jgxyG.##..yyyAmofqBBBBDDJKPRTYZZZWUTRMMMJthmwyyy#adad..yynb......bdc",
"JFFDDBBBqgidquuyslfruCECGzzBzEJDBDELOPUXVYWWYVTRMQQEhhhhBDCy#...#yyxfb...##bccc",
"EFFFDEDCuuqqjqjqgtCvyBFFLDJJFJDEDDGHKPUUVYZWWVTTQSQPJCCCCBCBBAuxGGBhf####bcdddd",
"JJJFDEEDCusqrqrrruAtDDGGDFFFHJEECJJJPQUTXWZWVYVTSQQQKDCCCCCAACBBBBuqbbb#bcdgjjd",
"ELJJJHJJEDBwwvBBACDDDGGGDEEDDDEJDHJKNQUXYYZWYVVSVRRMJJCGCDBBCAussgqrjjfggjjjlgj",
"LJHJHHJJJJEBBBDDDFJJJJGCCEFJJFDJNLONPQUUYZZWYYYVVUTQKJDBBBBCCBBABqAtqqqqqqqqplj",
"JHHJLHJJJHGEDCDCDDJGFDDCCLJFFFFKOKMKMQUVYZZZYVXVVXUQMHGDDAACCCDBCuBvssttqqrqrgf",
"GHHHHHKLKKJHGGEGFGEGDDEJJGHGHJOLPLPOMQUXYZZWWWXVVTTQQMJHEGDCCCDEEBBBBBButttthrg",
"DHJMKKHJMMKKKKKKKJJJJJMJLHJJJOONPPNMPQPTYYWWYYWYYYYTSPMLONJHKKJJFFEDCBBBtttttqq",
"JOLKKKKLLKKLLMMMMKMKKKKJLKJOJOKOPPPOMQTUYWYWWYYYYVVVVQMNMMMKKKKOJHJDCCBBzvtttmq",
"DLKKKKMNMKMKOPNMQNPMMKKLJKPOOKMMMMMMKPRUXYZWWVVWWWXWYYQPPPPPPPNNKKLJJGCCAAAtttq",
"HHHJNKKMMNPPQQQMQQPOMKOKKMPOPMPMPPPKPPQSXYWWWYYWWYYWYXTSQQQPQQQQNPOOJFGEECBtttq",
"DJLLONKKPPPQNQMQQMMOMOLOKMKMMMNMPPMKLPQSXYWYVVVWZWWWVXXXUPQPQQQQNKPLJGCGECCzztq",
"JJHHPNMMPPPQQQQQPPPKPPOPQPPMKMLNMQMKKMQUXYYVVVYYWYVZYXYYXSQSUQPPPKOOOGGCCCCCBtq",
"FHJMMNPMMPPQPPPPPPPOPPPPPPMNPMMMMQMMNMQSTVXVVVYYWYYZWYYVYYTTSQQQQQPKKOJGGECGuut",
"JLLONNMPPMPQQQQQQQPPPQPRPPPPNPNPPPPMMPQQUXUXVVVYWWWWZYYWYWYUUUPPPPPNOLGGGABAAzt",
"JLJOKOLMPPPPPPPPPQPPPQQPPPNMLMPPQQMMMMQPRPTVXYWYWWYWWYWWZYRVUUSSQPOOOOGGCCCBABm",
"DGKLMKKPNPQPPOPPPPQQQQQPPPOMPMMMMMMMMPPPPUXVVYYYWWWWWYWZZWVXXVRQPPPPOOGGCCBAuuu",
"DDHKHKLOPPQPPOQQQPPPPPPPPPMOOPPPPPMKMMMPPUXVUVYYWYWZWVYWZYYUYUUUPPPPMLLJCCAAAuu",
"DGHHHNLLNNPPPQPPPQQQQPPPPPPMPPPPPMKKLKPQUTUVXVWVYWWWYXYYWYYYYUVQQQNPMNOLCBAAuuq",
"DHJHHLOLNNPPPQQQOPPPQQQPNPQMMMKPPNKKMMMPUVVVVVWVVVXXXUVVVVVVVVRUUPPQMOLGDCGBztq",
"DHHHLHNNNPNPMMQPPQQPPPMPPMPPPLKMKKHKMNMPXVWVVVVVVVVVVTVVVVVVVVVTUPQPPLJJGCAAuur",
"BDDGHHHLOMMPPPPPPQPQQQQQPQMMLLNNHFKKKPQUVWZWYVVVRVVUUTXVVUXVVVXVURQPNLJLGCBBttq",
"CDFFFKLLKKOMPPQPPPQPQPQPQMMMHHHLLFFKMPSXYYZZWVVVRUVUPUUVVVVVVVVUTTPPLOLDDBBtttq",
"BBDJDHKLKKMPMPPPPPQPPPPPQPMLLLOLGDLKMPUXVZZZWVVUUURRPPUUXVVVVVVVRUPPLOODGCBztql",
"BDDHHHLHLMMMMQPPPPPQPQQPPMKKGLLKGHHHNPUYWWZZQWVVUUURQPPUUXXXVVVVUPPPNMKLCCBttqg",
"BBDDJLDHLONPPQQPPQQQQQQQMMKLJLOLKKKKMMUYYWZZZWVVUVTVQPPUUXVVVVYVUPQPPKOLCCAAmqg",
"wBBDFJJLKKKPPMQPPPPPPPPMPMHGJLONNNMNMPUVYZZZZQVVUUUUPPPURVVVVVWVVPPPPOOGDBBttqg",
"wBBBDDDLLKKOMMQQQPQPPMMMPKOFJLMPPMMMMQUYWZZZZWYYURXUQQPUUUXUVVVUUQRPPOLGGCBztqg",
"vwBBDDJLLKKKPPPPPPPPPPPPPMLDHMPPPMMMMPTYWWWZWWVWVVVVPPPURURUVVTTRQRPOLKDCCAtqkd",
"uBBBCDJKJLMMNPPPPPPPPMPPPMLDKMPPMNNKNPRVYWWWWRUVVVVVPPPPQPUUVVVTRRQPOLLGDBAtqgi",
"uuBBDDDGDLLMMMMNNMMPPPPPPMLLJLOLDDFHHMQURVVWVTUPUUUUPUSUQRRUVVTTRRRPPLOLDBvtqgd",
"uBBBBDDELLHMMOPPPQQQQMMMMMMJDLJCrifHHMPRRUUTTNhhLPRRUUVSUUQUUTSPUSQPPLKDDBvtqfb",
"AuuBCBCGFGHNNMMPPQPQQQQQMMMLDGGGhhgBKMMPRRRRRAhhCMRUUUUUQRUTSUUPUUQPPKJDDBztgdb",
"BBBBBCDDGJLKMMMNPPPPPMQQNMPPNGDDCDBBDDLNNMQRMLGGGPUTTVVTTRUPUPUPPPPMPKHGCAuqgb#",
"ABwBBBCDFHHHMPPPPPQPPPPMMPPPMMJEBCDEDHHHMMRRRPNKQUVVVXVVTRRRSPPUPPPPMMHGCAuqjdb",
"ABBBBBCDJJLKKMNNMPMPPPMPPPPPMMLJJCEDJFHHMQTURPNPTVVVYYYYVRSUUPUPQQMQMLJEBusqibb",
"AABBBBDBDDLJMMMNMMPPQPPPPMPPMMKMHJGGHMKKPTTVTTTTVVTYYVVVVUUQQQRRQQMMMLGCBuhgdcc",
"wwvBBBBDDGGLHKONOMMQQQQQQQQMPPNMKKJKKQRQRUYYWXXVVVYYWVVVVVURRQQRQQPPNHFBBAqgjcd",
"vvBBBBDDFFFFJONKKNMMQQQPPMMMPPNOLONKMQUSRVVYYVVVVYYYYWYVVVUUQQRPPMNMKLLDBAqjdcd",
"uwwCBCBBDDJLJLKKMKMMQMQQQPPPMMMKPMPPQUVSPXYYYVXVXYYYWWYVVVXVSQQQQPPPMHHBBtqgfii",
"uvBBCBDDDEJJLKKKMKPMMQPMPPPMPKPMMMMQUTTTQUXVVYYYXXYYYYYYYVVTUURQQMNMLKDBBtqjfjf",
"uAABBDDBDFFHHHHLMKMPPPPMMMMMMMPKQPMQTYXUQPVVVVYWXYYYYVYYVXUUUUPPPPMPNHFButgjcfd",
"vABCCBCCBDHJHLLHLMNNKMMMPMMMPMPKMPPRYYYUQPUYYYWYWYWWYWWWWVVUUUQRQQQPOLDCvtqjidf",
"svBACBDEDEFFHKLGHKKMKKPMMKMKMMPMPPPUYXVUPQXYYWWWWYWYWWWYYVVTSRRPQPQQMHGCvtqjddd",
"quuBBDDBDEFFHHHJLKKKMMMMMMMMMKPPPLKPVVXUPUXYYVYYYVZWWWWWWVXTRRQRQPPPMKFBAugjcfd",
"quuBCBBDDFJJJOHJLOMKKNOOOKKKKKMDGAGIJNRUPQPNPRRWWWWYZWYYYVVVUQRQRPPPMKDAAmgjjjd",
"kuuBBCDDFEFLKJLKMKKHHJHJHHNHBhmmmhomhGILJIIGGGGDNRVWWWWVVTXTTUPQRRPMKHDBAqgjjjb",
"fsvvBBDEFDDJHHJHMKKHFFFFJHHBmoooofohhhAGGAhhAhmmGGNRVWWTRRTTTUQQSQQMPHEBuqgjdj#",
".qvBBBBEDEDDJLLKKKKKKDCwuhghfbbbffffoohhmmhhhhgoohhhBGJHHMRQUSUSURQNMKDBumgfdb.",
".mtvBBBDDDEJFHJJKKKKJGBgb#####bbbafbioohhhhfooohfffhgoihGONQQSUTUPPPKHDBvqggfb.",
".dsvBBBBFDEFFJKKKKKKDCBhf#######aa#afhfooobbohhhhohhfghmDLPQQTTUTUPMMDCBurggd#.",
"..ptABBBBCDDGFFHKJJHEJEGhhbihhhhhhhhhhfhhhhhhhhhhIhhGIGOOPPPRQTUPQQQKDBAurgfd..",
"..btvuBDDDDDEEEJHHFEJJEEGhohgohhhhhhhhhhhhhhhIIIGGGGCLPRPPPPQRQRRQMMKEBuuqgd#..",
"...suuwBBBBBEFDDLJFEJDGEGthihoihhhhIGhhhhGGhGIGCGBGCGPUPPQPPQQQSQQMMKECutqjj...",
"...fuuBBBBBBBDDFFDDEJDJGGEzhghihhhhhIhIIhhhIIIIhAAGGPUUUSPPPPPQQQPMHHEBuqgfb...",
"....ptvBBBBBBBBEEEJDEJJJEJDzhohohhhhhmAIAhhhhhhhGGGOUTXTSRPPPQQQQNMJFBBtqld....",
"....ksuBBBBBBBBBDDDEJGDJEJCGhohohhhhhhhmhmhhhhhAGhIQVVUUUPQPPMQQNMHKJBBtqlb....",
".....psuBBBBBBBBDDDDEGEGECEBBmgohohhhhhhmmmmmhAhmJSSUUUUTSPQQMMPMMKFEBAqgd.....",
".....#ptvvvvBBBBBBECDDDDGEDBBCthfgooohohhhhhhhgtOQRQRQPSRQPQQPMPNKFFBBtrf#.....",
"......gssvvvwvBBBBEDEEEEGEDBBBBzifoooofffogohorEPQQSSUSUSUQQQNNNMKFDCusgd......",
".......essuwwwBBBCEEEEEEDEDEECCBBBBBBBBBBBBBBELMMPPQQRQRSQQQQQQMMHFBBuqf.......",
".......#lssvvvvwBBBBCDDDEEDCCCDCCDDDEJEDDEDDGJKKNPQSPUQQQQPQQNNKKHBCusl#.......",
".......#dpssvuwvBBCCDEEECEDGEEGDEEEDGEJEGEJJFJKPMQQRQQRQQQQQQMPMHJEBuqd#.......",
"........#dlqsuvBBBBDDDDEEEJJDJDJJJJJJJLJJJLLOPPQQQQQSQPQQQRQMNMKFDCuqfb........",
"........#bdklssuvwBBBBBEDDDEJJKOLOJKPONPPOPPPQQQQQRQSSUQQQQQQMMHFDwsf###.......",
"........#bdflpqtuuBBBBBDDEJGGOKPPOKPPPPPPPPPSSSSUSSQRQRQQQQQMMKFFBAqc###.......",
".........#cdflqssswvBBCDDEEJJOOPPQPPQQQPPPUSSSXUUUVVURSURQQPMMKDBuqdb###.......",
".........#cjdfkqpqtuBBBDCDDGJNKPQQPPQQPPPPUXVXVXVXXTTTURRQQPyHDBukdccbb........",
".........#cjddflqqsvvwBDCDDGHMMPPQQPPUUPPUUXVXXXXXXXVVVTRQQQMKEwsljdbb##.......",
".........#bcdjfjfklquuBBCDDELONPQPPPPPPPPXUXVVVVVVVVTTTTRQQMHBwslfjccbb#.......",
".........bbcjdfddflqssuBBCDEJHOPPPPPPUUTUUUXVVVVVVXUUXTRQQMHBwsqgfddc###.......",
".........#bcjjldddflksuBBBBBFJJNPQPPPPPUUUUUVVVVVVXVVVVRQQHDBsqrlfddcbb#.......",
".........#bcjjlgjjjflkpsvwBBCEJOPPPPPPPPPPPUVXVVVVVVVTTRNHBxsshrrfgjcb##.......",
"..........#cjdllllllflkpsuBBCDDJOMQUPUPPMMQRUVVVXVVVTTRPyBwvssqrrljjcb#........",
"..........#ccdfffffjijflquvBBBCLHPPPPQPMMMPQUUUVVVVVRRRMGwutvttqrpjjcb##.......",
"..........#bcjjjjgfffgddgqstuACDJLPMMPPMHHHMPRRRVVRRRPyBwuuutttrrlddc###.......",
"..........#bcjjpppppffffflkqsuABDFHMPPNKHDGHMPRRRRRRMHBwwwwvutqqrfgjcb#........",
"..........#bccjjpppgplpgjjglqtvBDFHyMMMHFFFJOPRRRRQNNDBBvvvuttqqlljjcbb........",
"...........bccdpplpplllggflllqqsuBDFHKyDBBDDHLHMNNHFCBBBBvvvtttqlfjjcbb........",
"...........bccjfgrrhppplllpgllgqqtvBDFBwuvwBBDHHGBBBBBBBBBBBttqqlpjjcbb........",
"...........#bcjfprrrrplllllplllqqqtwBBwsssuBBBBBFBBBBBEBBBBBvqtrgpgdcb#........",
"............bcjjjrqqqrqllllplllllqquvvvuvvvwBBBDDDCCCECCBCBAvttrpfljcb#........",
"............#cjpprrhrrrrrrrrrlllqqqqttvBBBBCCCEEDEDDDDEDBBBuvtqqgpfdc##........",
"............#bcprqqrrrqqqqqqqggrqqqqttvvvBBCCEBECEDEEEEDDCBvvtqqgppjc##........",
"............##cjgqqqqqqqqqqqqqrrqqrqttvvvBCCEEEEEEDEEEEECGBButtqgpjjb##........",
".............#bdprtthqqhqqrqqqgqqqqqtvuwBBBBDDFDDDDDDEEEBBBAvtqqpljjb##........",
".............#bcjrttqqqmqtqqqqgqqtttuvuwBBEBEEFEEEEJDDDDCBwutttqppjcb#.........",
".............#bcjrqttttqqttrrrrtttttvvwBBCEDFEEJEEEEEEEBBBvvvttrpfjcb#.........",
".............#bcjrqttttqqttrrrrtttttvvwBBCEDFEEJEEEEEEEBBBvvvttrpfjcb#.........",
".............#bcjrqttttqqttrrrrtttttvvwBBCEDFEEJEEEEEEEBBBvvvttrpfjcb#........."
};
