/* XPM */
static char * Cardback2_xpm[] = {
/* width height num_colors chars_per_pixel */
"79 123 63 1",
/* colors */
" 	c white",
".	c gray30",
"X	c #04c2c4",
"o	c #008080",
"O	c #044a4c",
"+	c #040204",
"@	c #00373c",
"#	c #006666",
"$	c #009999",
"%	c #003333",
"&	c #403333",
"*	c gray50",
"=	c #646466",
"-	c gray42",
";	c gray35",
":	c gray62",
">	c gray59",
",	c #a5a5a5",
"<	c #b4b4b4",
"1	c #d2d2d2",
"2	c #bcbcbc",
"3	c gray68",
"4	c #dadada",
"5	c gray90",
"6	c #c3c3c3",
"7	c #808080",
"8	c gray94",
"9	c #e9e9e9",
"0	c #fcfafc",
"q	c #6f6f6f",
"w	c #bfcc99",
"e	c #806600",
"r	c #806633",
"t	c gray56",
"y	c #bf9900",
"u	c #f4d10c",
"i	c yellow3",
"p	c #efe3e3",
"a	c #ac7206",
"s	c #ff9900",
"d	c #ffcc33",
"f	c #bf9933",
"g	c #bcb4a8",
"h	c #403300",
"j	c #544204",
"k	c #808000",
"l	c #bf9966",
"z	c #cbcbcb",
"x	c #bf9999",
"c	c #bfcccc",
"v	c #409966",
"b	c #ffcc99",
"n	c #809933",
"m	c #40cc99",
"M	c #409999",
"N	c #809966",
"B	c #a4c244",
"V	c #80cc66",
"C	c #406633",
"Z	c #803300",
"A	c #2f7e88",
"S	c #396363",
"D	c #1a5f67",
/* pixels */
"                                                                               ",
"                                                                               ",
"                                                                               ",
"                                                                               ",
"                                                                               ",
"     .....................................................................     ",
"     .XXXXXXXXXXXXXXXXXXXXXXXXXXXXXXXXXXXXXXXXXXXXXXXXXXXXXXXXXXXXXXXXXXX.     ",
"     .XXXXXXXXXXXXXXXXXXXXXXXXXXXXXXXXXXXXXXXXXXXXXXXXXXXXXXXXXXXXXXXXXXX.     ",
"     .XXXXXXXXXXXXXXXXXXXXXXXXXXXXXXXXXXXXXXXXXXXXXXXXXXXXXXXXXXXXXXXXXXX.     ",
"     .XXXXXXXXXXXXXXXXXXXXXXXXXXXXXXXXXXXXXXXXXXXXXXXXXXXXXXXXXXXXXXXXXXX.     ",
"     .XXXXXXXXXXXXXXXXXXXXXXXXXXXXXXXXXXXXXXXXXXXXXXXXXXXXXXXXXXXXXXXXXXX.     ",
"     .XXXXXXXXXXXXXXXXXXXXXXXXXXXXXXXXXXXXXXXXXXXXXXXXXXXXXXXXXXXXXXXXXXX.     ",
"     .XXXXXXXXXXXXXXXXXXXXXXXXXXXXXXXXXXXXXXXXXXXXXXXXXXXXXXXXXXXXXXXXXXX.     ",
"     .XXXXXXXXXXXXXXXXXXXXXXXXXXXXXXXXXXXXXXXXXXXXXXXXXXXXXXXXXXXXXXXXXXX.     ",
"     .XXXXXXXXXXXXXXXXXXXXXXXXXXXXXXXXXXXXXXXXXXXXXXXXXXXXXXXXXXXXXXXXXXX.     ",
"     .XXXXXXXXXXXXXXXXXXXXXXXXXXXXXXXXXXXXXXXXXXXXXXXXXXXXXXXXXXXXXXXXXXX.     ",
"     .XXXXXXXXXXXXXXXXXXXXXXXXXXXXXXXXXXXXXXXXXXXXXXXXXXXXXXXXXXXXXXXXXXX.     ",
"     .XXXXXXXXXXXXXXXXXXXXXXXXXXXXXXXXXXXXXXXXXXXXXXXXXXXXXXXXXXXXXXXXXXX.     ",
"     .XXXXXXXXXXXXXXXXXXXXXXXXXXXXXXXXXXXXXXXXXXXXXXXXXXXXXXXXXXXXXXXXXXX.     ",
"     .XXXXXXXXXXXXXXXXXXXXXXXXXXXXXXXXXXXXXXXXXXXXXXXXXXXXXXXXXXXXXXXXXXX.     ",
"     .XXXXXXXXXXXXXXXXXXXXXXXXXXXXXXXXXXXXXXXXXXXXXXXXXXXXXXXXXXXXXXXXXXX.     ",
"     .XXXXXXXXXXXXXXXXXXXXXXXXXXXXXXXXXXXXXXXXXXXXXXXXXXXXXXXXXXXXXXXXXXX.     ",
"     .XXXXXXXXXXXXXXXXXXXXXXXXXXXXoO+++++@#$XXXXXXXXXXXXXXXXXXXXXXXXXXXXX.     ",
"     .XXXXXXXXXXXXXXXXXXXXXXXXXX#+++++++++++%$XXXXXXXXXXXXXXXXXXXXXXXXXXX.     ",
"     .XXXXXXXXXXXXXXXXXXXXXXXXX%++++++++++++++#XXXXXXXXXXXXXXXXXXXXXXXXXX.     ",
"     .XXXXXXXXXXXXXXXXXXXXXXXX%+++++++++++&.&++OXXXXXXXXXXXXXXXXXXXXXXXXX.     ",
"     .XXXXXXXXXXXXXXXXXXXXXXX@++++++++++++&*=&++#XXXXXXXXXXXXXXXXXXXXXXXX.     ",
"     .XXXXXXXXXXXXXXXXXXXXXX$+++++++++++++&-;&+++XXXXXXXXXXXXXXXXXXXXXXXX.     ",
"     .XXXXXXXXXXXXXXXXXXXXXXO+++++++++++++&&+++++#XXXXXXXXXXXXXXXXXXXXXXX.     ",
"     .XXXXXXXXXXXXXXXXXXXXXX%+++++++++++++++++++++$XXXXXXXXXXXXXXXXXXXXXX.     ",
"     .XXXXXXXXXXXXXXXXXXXXXX++++++++++++++++++++++#XXXXXXXXXXXXXXXXXXXXXX.     ",
"     .XXXXXXXXXXXXXXXXXXXXXX++++++++++++++++++++++%XXXXXXXXXXXXXXXXXXXXXX.     ",
"     .XXXXXXXXXXXXXXXXXXXXXX+++++%&++++++..+&++++++XXXXXXXXXXXXXXXXXXXXXX.     ",
"     .XXXXXXXXXXXXXXXXXXXXXX+++*:;+++++&>,<<&++++++XXXXXXXXXXXXXXXXXXXXXX.     ",
"     .XXXXXXXXXXXXXXXXXXXXXX++=<12;+++&314567++++++$XXXXXXXXXXXXXXXXXXXXX.     ",
"     .XXXXXXXXXXXXXXXXXXXXXX++<<>86+++*95*>91&+++++$XXXXXXXXXXXXXXXXXXXXX.     ",
"     .XXXXXXXXXXXXXXXXXXXXXX%+2+;*0&++78&+==0*+++++oXXXXXXXXXXXXXXXXXXXXX.     ",
"     .XXXXXXXXXXXXXXXXXXXXXX%+3+&.0&+&q8+++%83+++++oXXXXXXXXXXXXXXXXXXXXX.     ",
"     .XXXXXXXXXXXXXXXXXXXXXX%+,+++weeer1++++53+++++oXXXXXXXXXXXXXXXXXXXXX.     ",
"     .XXXXXXXXXXXXXXXXXXXXXX%+qt+eyuuyyie++707+++++oXXXXXXXXXXXXXXXXXXXXX.     ",
"     .XXXXXXXXXXXXXXXXXXXXXXO++pasuuuudduyfwg++++++#XXXXXXXXXXXXXXXXXXXXX.     ",
"     .XXXXXXXXXXXXXXXXXXXXXX#++ayuuuuudduiiufh+++++@XXXXXXXXXXXXXXXXXXXXX.     ",
"     .XXXXXXXXXXXXXXXXXXXXXX#+aysuuuuuduuuiyue+++++%XXXXXXXXXXXXXXXXXXXXX.     ",
"     .XXXXXXXXXXXXXXXXXXXXXX#+aysuuuuduiuiyyye++++++$XXXXXXXXXXXXXXXXXXXX.     ",
"     .XXXXXXXXXXXXXXXXXXXXXX#+jasuuuuiiiyyysyh++&+++oXXXXXXXXXXXXXXXXXXXX.     ",
"     .XXXXXXXXXXXXXXXXXXXXXX#+&eauudiykeyyyyl;++*-&+%XXXXXXXXXXXXXXXXXXXX.     ",
"     .XXXXXXXXXXXXXXXXXXXXXXo+>3eeyaayyyyyl66:++.7q++oXXXXXXXXXXXXXXXXXXX.     ",
"     .XXXXXXXXXXXXXXXXXXXXXXo+t2:aayyyyafg2146.++;;+++XXXXXXXXXXXXXXXXXXX.     ",
"     .XXXXXXXXXXXXXXXXXXXXXX++tz6xraeaal2648083+++++++oXXXXXXXXXXXXXXXXXX.     ",
"     .XXXXXXXXXXXXXXXXXXXXXO++,p622ggg22c580008&++++++%XXXXXXXXXXXXXXXXXX.     ",
"     .XXXXXXXXXXXXXXXXXXXXo%+&989222222198808803+++++++OXXXXXXXXXXXXXXXXX.     ",
"     .XXXXXXXXXXXXXXXXXXX$+++<0801622c9800000808&+++++++$XXXXXXXXXXXXXXXX.     ",
"     .XXXXXXXXXXXXXXXXXXX%++*8000094588800000888t++++++++XXXXXXXXXXXXXXXX.     ",
"     .XXXXXXXXXXXXXXXXXXo+++988888888000000000005++++++++OXXXXXXXXXXXXXXX.     ",
"     .XXXXXXXXXXXXXXXXX$+++*888880800008888888888&++++++++OXXXXXXXXXXXXXX.     ",
"     .XXXXXXXXXXXXXXXXX%+++3800000880800000000888>+++++++++oXXXXXXXXXXXXX.     ",
"     .XXXXXXXXXXXXXXXX%+++&,z88008559800089544zz41++++++++++XXXXXXXXXXXXX.     ",
"     .XXXXXXXXXXXXXXXo++++;,2588888900888884zz2665*+++++++++%XXXXXXXXXXXX.     ",
"     .XXXXXXXXXXXXXXX+++++>z80888888888888 0885z6z9+++&++++++oXXXXXXXXXXX.     ",
"     .XXXXXXXXXXXXXX$++&+&z000000080888888 000085z47+++&+++++%XXXXXXXXXXX.     ",
"     .XXXXXXXXXXXXXXo+%++>8000000000000000 0000009z4++++&+++++oXXXXXXXXXX.     ",
"     .XXXXXXXXXXXXXX%+&+&000000000000000000000000094*+&&++++++#XXXXXXXXXX.     ",
"     .XXXXXXXXXXXXX$++++30000000000000  000000000000z+&&+&+++++XXXXXXXXXX.     ",
"     .XXXXXXXXXXXXXO+&+&8000000008000000 000000000008&+++&+++++oXXXXXXXXX.     ",
"     .XXXXXXXXXXXXX++++:00000000098 888888 888888 880.++++&++++OXXXXXXXXX.     ",
"     .XXXXXXXXXXXX#++++88888  88 988888 8888888 88888*++++&+++++XXXXXXXXX.     ",
"     .XXXXXXXXXXXX%+++;0888    885800000  0 0000000007++++&+++++oXXXXXXXX.     ",
"     .XXXXXXXXXXXo++++>88   88 885888888 88 8888 888 ,++++++++++OXXXXXXXX.     ",
"     .XXXXXXXXXXX%++++1888  8 8 84 88   888 8 88 88  g++++%+++++%XXXXXXXX.     ",
"     .XXXXXXXXXXO+++++4000 00000848 8888888 88888 8882+++++++++++XXXXXXXX.     ",
"     .XXXXXXXXX$+++&&+40000000008500 00000  0  0 0000c+++++++++++XXXXXXXX.     ",
"     .XXXXXXXXXo+++&.&40000000008588 88 888 888 88 888+++&+++++++XXXXXXXX.     ",
"     .XXXXXXXXXo++++&&500000000089888 8 8888888 888 81++++++++++%XXXXXXXX.     ",
"     .XXXXXXXXXo++eh+*900000000085800  0000     00000<+%+++++%++%XXXXXXXX.     ",
"     .XXXXXXXXXXesuuj+1000000000858000 00 000000 0000=%++++++&&+@XXXXXXXX.     ",
"     .XXXXXXXXXvyuuuuj&2000000008588 8  88888 8 88biuy+++++++++h$XXXXXXXX.     ",
"     .XXXXXXXXXfyuuuuuj+>8888888858888  8  88 8888iuiuh+++++++hiiXXXXXXXX.     ",
"     .XXXXXXXXnysuuuuush+q90000088800000 0000 0000yuuy++++++++yuimXXXXXXX.     ",
"     .XXXXXXXnyysuuuuuuy++.5000008888888 888888885fuuyj++++++auuumXXXXXXX.     ",
"     .XXXMvNayyuuuuuuuuue++&5000000000  0000000016fusyaj+++hayuuumXXXXXXX.     ",
"     .XXfssysusuuuuuuuuuy+++%68888888888 8888888ccfusyyaaaaaysuuuBXXXXXXX.     ",
"     .XXyusuuuuuuuuuuuuuue++++t888 888   8888 88z6fssyyyyyyysuuuuuVXXXXXX.     ",
"     .Xnsuuuuuuuuuuuuuuuuuh++++288 8888 88 8888 16aysssyyyysuuuuuuumXXXXX.     ",
"     .XNsuuuuuuuuuuuuuuuuuy++++>8888 88888 8 88 46ayssssssssuuuuuuuuVXXXX.     ",
"     .XNyuuuuuuuuuuuuuuuuuue+++:8888     88888884;ayysuuuuuuuuuuuuuuuBXXX.     ",
"     .XNyuuuuuuuuuuuuuuuuuush.<08888888888888885&+aysuuuuuuuuuuuuuuuuuuXX.     ",
"     .XNyuuuuuuuuuuuuuuuuuuufp880000000 0000004&+haysuuuuuuuuuuuuuuuuuuXX.     ",
"     .XNysuuuuuuuuuuuuuuuuuusf088 88888 88888t+++haysuuuuuuuuuuuuuuuuufXX.     ",
"     .XNyuuuuuuuuuuuuuuuuuuuiax000000  00001&++++haysuuuuuuuuuuuuuuuufXXX.     ",
"     .Xnysuuuuuuuuuuuuuuuuusyyj-50000008z>C++++++jaysuuuuuuuuuuuuusyvXXXX.     ",
"     .Xyyysssuuuuuuuuuuuuuuuyye++&C;;&%++++++++++jyysuuuuuuuuuuusfNXXXXXX.     ",
"     .XXyyyyyysssuuuuuuuuuusyyeh+++++++++++++++++ZaysuuuuuuusssyvXXXXXXXX.     ",
"     .XXnaayyyyyyyyysuuuuuusyaeh+++++++++++++++++jayyssuusssyyr$XXXXXXXXX.     ",
"     .XXX$vvraaaaayyyyssssyyaaZh+++++++++++++++++jaayyyyyyyyaC$XXXXXXXXXX.     ",
"     .XXXXXXX$ACeeaaaayyyyaaaej+O#o$XXXXXXXXXXXooheaayyyyyaeAXXXXXXXXXXXX.     ",
"     .XXXXXXXXXXX$ASjeaaaaaeejS$XXXXXXXXXXXXXXXXX&jeaaaaaaeAXXXXXXXXXXXXX.     ",
"     .XXXXXXXXXXXXXXXACjeeejjSXXXXXXXXXXXXXXXXXXX$hjeeeeejAXXXXXXXXXXXXXX.     ",
"     .XXXXXXXXXXXXXXXXX$DCCS$XXXXXXXXXXXXXXXXXXXXXXACCCCAXXXXXXXXXXXXXXXX.     ",
"     .XXXXXXXXXXXXXXXXXXXXXXXXXXXXXXXXXXXXXXXXXXXXXXXXXXXXXXXXXXXXXXXXXXX.     ",
"     .XXXXXXXXXXXXXXXXXXXXXXXXXXXXXXXXXXXXXXXXXXXXXXXXXXXXXXXXXXXXXXXXXXX.     ",
"     .XXXXXXXXXXXXXXXXXXXXXXXXXXXXXXXXXXXXXXXXXXXXXXXXXXXXXXXXXXXXXXXXXXX.     ",
"     .XXXXXXXXXXXXXXXXXXXXXXXXXXXXXXXXXXXXXXXXXXXXXXXXXXXXXXXXXXXXXXXXXXX.     ",
"     .XXXXXXXXXXXXXXXXXXXXXXXXXXXXXXXXXXXXXXXXXXXXXXXXXXXXXXXXXXXXXXXXXXX.     ",
"     .XXXXXXXXXXXXXXXXXXXXXXXXXXXXXXXXXXXXXXXXXXXXXXXXXXXXXXXXXXXXXXXXXXX.     ",
"     .XXXXXXXXXXXXXXXXXXXXXXXXXXXXXXXXXXXXXXXXXXXXXXXXXXXXXXXXXXXXXXXXXXX.     ",
"     .XXXXXXXXXXXXXXXXXXXXXXXXXXXXXXXXXXXXXXXXXXXXXXXXXXXXXXXXXXXXXXXXXXX.     ",
"     .XXXXXXXXXXXXXXXXXXXXXXXXXXXXXXXXXXXXXXXXXXXXXXXXXXXXXXXXXXXXXXXXXXX.     ",
"     .XXXXXXXXXXXXXXXXXXXXXXXXXXXXXXXXXXXXXXXXXXXXXXXXXXXXXXXXXXXXXXXXXXX.     ",
"     .XXXXXXXXXXXXXXXXXXXXXXXXXXXXXXXXXXXXXXXXXXXXXXXXXXXXXXXXXXXXXXXXXXX.     ",
"     .XXXXXXXXXXXXXXXXXXXXXXXXXXXXXXXXXXXXXXXXXXXXXXXXXXXXXXXXXXXXXXXXXXX.     ",
"     .XXXXXXXXXXXXXXXXXXXXXXXXXXXXXXXXXXXXXXXXXXXXXXXXXXXXXXXXXXXXXXXXXXX.     ",
"     .XXXXXXXXXXXXXXXXXXXXXXXXXXXXXXXXXXXXXXXXXXXXXXXXXXXXXXXXXXXXXXXXXXX.     ",
"     .XXXXXXXXXXXXXXXXXXXXXXXXXXXXXXXXXXXXXXXXXXXXXXXXXXXXXXXXXXXXXXXXXXX.     ",
"     .XXXXXXXXXXXXXXXXXXXXXXXXXXXXXXXXXXXXXXXXXXXXXXXXXXXXXXXXXXXXXXXXXXX.     ",
"     .XXXXXXXXXXXXXXXXXXXXXXXXXXXXXXXXXXXXXXXXXXXXXXXXXXXXXXXXXXXXXXXXXXX.     ",
"     .XXXXXXXXXXXXXXXXXXXXXXXXXXXXXXXXXXXXXXXXXXXXXXXXXXXXXXXXXXXXXXXXXXX.     ",
"     .XXXXXXXXXXXXXXXXXXXXXXXXXXXXXXXXXXXXXXXXXXXXXXXXXXXXXXXXXXXXXXXXXXX.     ",
"     .....................................................................     ",
"                                                                               ",
"                                                                               ",
"                                                                               ",
"                                                                               ",
"                                                                               "};
