/* XPM */
static char *noname[] = {
/* width height ncolors chars_per_pixel */
"71 107 2 1",
/* colors */
"  c #000000",
". c None",
/* pixels */
".....                                                             .....",
"...  .............................................................  ...",
"..  ... ... ... ... ... ... ... ... ... ... ... ... ... ... ... ...  ..",
". ................................................................... .",
". ... ....... ....... ....... ....... ....... ....... ....... ....... .",
" ..................................................................... ",
" .. ... ... ... ... ... ... ... ... ... ... ... ... ... ... ... ... .. ",
" ..................................................................... ",
"  ....... ....... ....... ....... ....... ....... ....... ....... .... ",
" ..................................................................... ",
" .. ... ... ... ... ... ... ... ... ... ... ... ... ... ... ... ... .. ",
" ..................................................................... ",
" .... ....... ....... ....... ....... ....... ....... ....... .......  ",
" ..................................................................... ",
" .. ... ... ... ... ... ... ... ... ... ... ... ... ... ... ... ... .. ",
" ..................................................................... ",
"  ....... ....... ....... ....... ....... ....... ....... ....... .... ",
" ..................................................................... ",
" .. ... ... ... ... ... ... ... ... ... ... ... ... ... ... ... ... .. ",
" ..................................................................... ",
" .... ....... ....... ....... ....... ....... ....... ....... .......  ",
" ..................................................................... ",
" .. ... ... ... ... ... ... ... ... ... ... ... ... ... ... ... ... .. ",
" ..................................................................... ",
"  ....... ....... ....... ....... ....... ....... ....... ....... .... ",
" ..................................................................... ",
" .. ... ... ... ... ... ... ... ... ... ... ... ... ... ... ... ... .. ",
" ..................................................................... ",
" .... ....... ....... ....... ....... ....... ....... ....... .......  ",
" ..................................................................... ",
" .. ... ... ... ... ... ... ... ... ... ... ... ... ... ... ... ... .. ",
" ..................................................................... ",
"  ....... ....... ....... ....... ....... ....... ....... ....... .... ",
" ..................................................................... ",
" .. ... ... ... ... ... ... ... ... ... ... ... ... ... ... ... ... .. ",
" .................................. .................................. ",
" .... ....... ....... ....... ....    ....... ....... ....... .......  ",
" .................................   ................................. ",
" .. ... ... ... ... ... ... ... .     . ... ... ... ... ... ... ... .. ",
" ...............................       ............................... ",
"  ....... ....... ....... .....         . ....... ....... ....... .... ",
" .............................           ............................. ",
" .. ... ... ... ... ... ... .             . ... ... ... ... ... ... .. ",
" ...........................               ........................... ",
" .... ....... ....... .....                 . ....... ....... .......  ",
" .........................                   ......................... ",
" .. ... ... ... ... ... .                     . ... ... ... ... ... .. ",
" .......................                       ....................... ",
"  ....... ....... .....                         . ....... ....... .... ",
" .....................                           ..................... ",
" .. ... ... ... ... ..                           .. ... ... ... ... .. ",
" ....................                             .................... ",
" .... ....... .......                             ... ....... .......  ",
" ...................                               ................... ",
" .. ... ... ... ...                                 ... ... ... ... .. ",
" ..................                                 .................. ",
"  ....... ....... .                                 ..... ....... .... ",
" ..................                                 .................. ",
" .. ... ... ... ...                                 ... ... ... ... .. ",
" ..................                                 .................. ",
" .... ....... .....                                 . ....... .......  ",
" ...................             .   .             ................... ",
" .. ... ... ... ...             ..   ..             ... ... ... ... .. ",
" ....................           ..   ..           .................... ",
"  ....... ....... ....         ..    ...          ....... ....... .... ",
" ......................      .....   .....      ...................... ",
" .. ... ... ... ... ... ... ... .     . ... ... ... ... ... ... ... .. ",
" ................................     ................................ ",
" .... ....... ....... ....... ..       ...... ....... ....... .......  ",
" ...............................       ............................... ",
" .. ... ... ... ... ... ... ...         ... ... ... ... ... ... ... .. ",
" .............................           ............................. ",
"  ....... ....... ....... ....... ....... ....... ....... ....... .... ",
" ..................................................................... ",
" .. ... ... ... ... ... ... ... ... ... ... ... ... ... ... ... ... .. ",
" ..................................................................... ",
" .... ....... ....... ....... ....... ....... ....... ....... .......  ",
" ..................................................................... ",
" .. ... ... ... ... ... ... ... ... ... ... ... ... ... ... ... ... .. ",
" ..................................................................... ",
"  ....... ....... ....... ....... ....... ....... ....... ....... .... ",
" ..................................................................... ",
" .. ... ... ... ... ... ... ... ... ... ... ... ... ... ... ... ... .. ",
" ..................................................................... ",
" .... ....... ....... ....... ....... ....... ....... ....... .......  ",
" ..................................................................... ",
" .. ... ... ... ... ... ... ... ... ... ... ... ... ... ... ... ... .. ",
" ..................................................................... ",
"  ....... ....... ....... ....... ....... ....... ....... ....... .... ",
" ..................................................................... ",
" .. ... ... ... ... ... ... ... ... ... ... ... ... ... ... ... ... .. ",
" ..................................................................... ",
" .... ....... ....... ....... ....... ....... ....... ....... .......  ",
" ..................................................................... ",
" .. ... ... ... ... ... ... ... ... ... ... ... ... ... ... ... ... .. ",
" ..................................................................... ",
"  ....... ....... ....... ....... ....... ....... ....... ....... .... ",
" ..................................................................... ",
" .. ... ... ... ... ... ... ... ... ... ... ... ... ... ... ... ... .. ",
" ..................................................................... ",
" .... ....... ....... ....... ....... ....... ....... ....... .......  ",
" ..................................................................... ",
". . ... ... ... ... ... ... ... ... ... ... ... ... ... ... ... ... . .",
". ................................................................... .",
".. ...... ....... ....... ....... ....... ....... ....... ....... .. ..",
"...  .............................................................  ...",
".....                                                             ....."
};
