/* XPM */
static char *Empty[] = {
/* width height num_colors chars_per_pixel */
"    71   107        3            1",
/* colors */
". c #000000",
"# c red",
"a c None",
/* pixels */
"aaaaa.............................................................aaaaa",
"aaa..aaaaaaaaaaaaaaaaaaaaaaaaaaaaaaaaaaaaaaaaaaaaaaaaaaaaaaaaaaaaa..aaa",
"aa..aaa.aaa.aaa.aaa.aaa.aaa.aaa.aaa.aaa.aaa.aaa.aaa.aaa.aaa.aaa.aaa..aa",
"a.aaaaaaaaaaaaaaaaaaaaaaaaaaaaaaaaaaaaaaaaaaaaaaaaaaaaaaaaaaaaaaaaaaa.a",
"a.aaa.aaaaaaa.aaaaaaa.aaaaaaa.aaaaaaa.aaaaaaa.aaaaaaa.aaaaaaa.aaaaaaa.a",
".aaaaaaaaaaaaaaaaaaaaaaaaaaaaaaaaaaaaaaaaaaaaaaaaaaaaaaaaaaaaaaaaaaaaa.",
".aa.aaa.aaa.aaa.aaa.aaa.aaa.aaa.aaa.aaa.aaa.aaa.aaa.aaa.aaa.aaa.aaa.aa.",
".aaaaaaaaaaaaaaaaaaaaaaaaaaaaaaaaaaaaaaaaaaaaaaaaaaaaaaaaaaaaaaaaaaaaa.",
"..aaaaaaa.aaaaaaa.aaaaaaa.aaaaaaa.aaaaaaa.aaaaaaa.aaaaaaa.aaaaaaa.aaaa.",
".aaaaaaaaaaaaaaaaaaaaaaaaaaaaaaaaaaaaaaaaaaaaaaaaaaaaaaaaaaaaaaaaaaaaa.",
".aa.aaa.aaa.aaa.aaa.aaa.aaa.aaa.aaa.aaa.aaa.aaa.aaa.aaa.aaa.aaa.aaa.aa.",
".aaaaaaaaaaaaaaaaaaaaaaaaaaaaaaaaaaaaaaaaaaaaaaaaaaaaaaaaaaaaaaaaaaaaa.",
".aaaa.aaaaaaa.aaaaaaa.aaaaaaa.aaaaaaa.aaaaaaa.aaaaaaa.aaaaaaa.aaaaaaa..",
".aaaaaaaaaaaaaaaaaaaaaaaaaaaaaaaaaaaaaaaaaaaaaaaaaaaaaaaaaaaaaaaaaaaaa.",
".aa.aaa.aaa.aaa.aaa.aaa.aaa.aaa.aaa.aaa.aaa.aaa.aaa.aaa.aaa.aaa.aaa.aa.",
".aaaaaaaaaaaaaaaaaaaaaaaaaaaaaaaaaaaaaaaaaaaaaaaaaaaaaaaaaaaaaaaaaaaaa.",
"..aaaaaaa.aaaaaaa.aaaaaaa.aaaaaaa.aaaaaaa.aaaaaaa.aaaaaaa.aaaaaaa.aaaa.",
".aaaaaaaaaaaaaaaaaaaaaaaaaaaaaaaaaaaaaaaaaaaaaaaaaaaaaaaaaaaaaaaaaaaaa.",
".aa.aaa.aaa.aaa.aaa.aaa.aaa.aaa.aaa.aaa.aaa.aaa.aaa.aaa.aaa.aaa.aaa.aa.",
".aaaaaaaaaaaaaaaaaaaaaaaaaaaaaaaaaaaaaaaaaaaaaaaaaaaaaaaaaaaaaaaaaaaaa.",
".aaaa.aaaaaaa.aaaaaaa.aaaaaaa.aaaaaaa.aaaaaaa.aaaaaaa.aaaaaaa.aaaaaaa..",
".aaaaaaaaaaaaaaaaaaaaaaaaaaaaaaaaaaaaaaaaaaaaaaaaaaaaaaaaaaaaaaaaaaaaa.",
".aa.aaa.aaa.aaa.aaa.aaa.aaa.aaa.aaa.aaa.aaa.aaa.aaa.aaa.aaa.aaa.aaa.aa.",
".aaaaaaaaaaaaaaaaaaaaaaaaaaaaaaaaaaaaaaaaaaaaaaaaaaaaaaaaaaaaaaaaaaaaa.",
"..aaaaaaa.aaaaaaa.aaaaaaa.aaaaaaa.aaaaaaa.aaaaaaa.aaaaaaa.aaaaaaa.aaaa.",
".aaaaaaaaaaaaaaaaaaaaaaaaaaaaaaaaaaaaaaaaaaaaaaaaaaaaaaaaaaaaaaaaaaaaa.",
".aa.aaa.aaa.aaa.aaa.aaa.aaa.aaa.aaa.aaa.aaa.aaa.aaa.aaa.aaa.aaa.aaa.aa.",
".aaaaaaaaaaaaaaaaaaaaaaaaaaaaaaaaaaaaaaaaaaaaaaaaaaaaaaaaaaaaaaaaaaaaa.",
".aaaa.aaaaaaa.aaaaaaa.aaaaaaa.aaaaaaa.aaaaaaa.aaaaaaa.aaaaaaa.aaaaaaa..",
".aaaaaaaaaaaaaaaaaaaaaaaaaaaaaaaaaaaaaaaaaaaaaaaaaaaaaaaaaaaaaaaaaaaaa.",
".aa.aaa.aaa.aaa.aaa.aaa.aaa.aaa.aaa.aaa.aaa.aaa.aaa.aaa.aaa.aaa.aaa.aa.",
".aaaaaaaaaaaaaaaaaaaaaaaaaaaaaaaaaaaaaaaaaaaaaaaaaaaaaaaaaaaaaaaaaaaaa.",
"..aaaaaaa.aaaaaaa.aaaaaaa.aaaaaaa.aaaaaaa.aaaaaaa.aaaaaaa.aaaaaaa.aaaa.",
".aaaaaaaaaaaaaaaaaaaaaaaaaaaaaaaaaaaaaaaaaaaaaaaaaaaaaaaaaaaaaaaaaaaaa.",
".aa.aaa.aaa.aaa.aaa.aaa.aaa.aaa.aaa.aaa.aaa.aaa.aaa.aaa.aaa.aaa.aaa.aa.",
".aaaaaaaaaaaaaaaaaaaaaaaaaaaaaaaaaaaaaaaaaaaaaaaaaaaaaaaaaaaaaaaaaaaaa.",
".aaaa.aaaaaaa.aaaaaaa.aa######aaaaaaa.aaa######aaaaaa.aaaaaaa.aaaaaaa..",
".aaaaaaaaaaaaaaaaaaaaa##########aaaaaaa##########aaaaaaaaaaaaaaaaaaaaa.",
".aa.aaa.aaa.aaa.aaa.a############aa.aa############a.aaa.aaa.aaa.aaa.aa.",
".aaaaaaaaaaaaaaaaaaa##############aaa##############aaaaaaaaaaaaaaaaaaa.",
"..aaaaaaa.aaaaaaa.a###############aaa###############aaaaa.aaaaaaa.aaaa.",
".aaaaaaaaaaaaaaaaaa################a################aaaaaaaaaaaaaaaaaa.",
".aa.aaa.aaa.aaa.aa#################.#################aa.aaa.aaa.aaa.aa.",
".aaaaaaaaaaaaaaaaa###################################aaaaaaaaaaaaaaaaa.",
".aaaa.aaaaaaa.aaaa###################################.aaaaaaa.aaaaaaa..",
".aaaaaaaaaaaaaaaaa###################################aaaaaaaaaaaaaaaaa.",
".aa.aaa.aaa.aaa.aa###################################aa.aaa.aaa.aaa.aa.",
".aaaaaaaaaaaaaaaaa###################################aaaaaaaaaaaaaaaaa.",
"..aaaaaaa.aaaaaaa.###################################aaaa.aaaaaaa.aaaa.",
".aaaaaaaaaaaaaaaaa###################################aaaaaaaaaaaaaaaaa.",
".aa.aaa.aaa.aaa.aaa#################################aaa.aaa.aaa.aaa.aa.",
".aaaaaaaaaaaaaaaaaa#################################aaaaaaaaaaaaaaaaaa.",
".aaaa.aaaaaaa.aaaaaa###############################aa.aaaaaaa.aaaaaaa..",
".aaaaaaaaaaaaaaaaaaaa#############################aaaaaaaaaaaaaaaaaaaa.",
".aa.aaa.aaa.aaa.aaa.aa###########################aa.aaa.aaa.aaa.aaa.aa.",
".aaaaaaaaaaaaaaaaaaaaaa#########################aaaaaaaaaaaaaaaaaaaaaa.",
"..aaaaaaa.aaaaaaa.aaaaaa#######################aa.aaaaaaa.aaaaaaa.aaaa.",
".aaaaaaaaaaaaaaaaaaaaaaaa#####################aaaaaaaaaaaaaaaaaaaaaaaa.",
".aa.aaa.aaa.aaa.aaa.aaa.aa###################aa.aaa.aaa.aaa.aaa.aaa.aa.",
".aaaaaaaaaaaaaaaaaaaaaaaaaa#################aaaaaaaaaaaaaaaaaaaaaaaaaa.",
".aaaa.aaaaaaa.aaaaaaa.aaaaaa###############aa.aaaaaaa.aaaaaaa.aaaaaaa..",
".aaaaaaaaaaaaaaaaaaaaaaaaaaaa#############aaaaaaaaaaaaaaaaaaaaaaaaaaaa.",
".aa.aaa.aaa.aaa.aaa.aaa.aaa.aa###########aa.aaa.aaa.aaa.aaa.aaa.aaa.aa.",
".aaaaaaaaaaaaaaaaaaaaaaaaaaaaaa#########aaaaaaaaaaaaaaaaaaaaaaaaaaaaaa.",
"..aaaaaaa.aaaaaaa.aaaaaaa.aaaaaa#######aa.aaaaaaa.aaaaaaa.aaaaaaa.aaaa.",
".aaaaaaaaaaaaaaaaaaaaaaaaaaaaaaaa#####aaaaaaaaaaaaaaaaaaaaaaaaaaaaaaaa.",
".aa.aaa.aaa.aaa.aaa.aaa.aaa.aaa.aa###aa.aaa.aaa.aaa.aaa.aaa.aaa.aaa.aa.",
".aaaaaaaaaaaaaaaaaaaaaaaaaaaaaaaaa###aaaaaaaaaaaaaaaaaaaaaaaaaaaaaaaaa.",
".aaaa.aaaaaaa.aaaaaaa.aaaaaaa.aaaaa#a.aaaaaaa.aaaaaaa.aaaaaaa.aaaaaaa..",
".aaaaaaaaaaaaaaaaaaaaaaaaaaaaaaaaaa#aaaaaaaaaaaaaaaaaaaaaaaaaaaaaaaaaa.",
".aa.aaa.aaa.aaa.aaa.aaa.aaa.aaa.aaa.aaa.aaa.aaa.aaa.aaa.aaa.aaa.aaa.aa.",
".aaaaaaaaaaaaaaaaaaaaaaaaaaaaaaaaaaaaaaaaaaaaaaaaaaaaaaaaaaaaaaaaaaaaa.",
"..aaaaaaa.aaaaaaa.aaaaaaa.aaaaaaa.aaaaaaa.aaaaaaa.aaaaaaa.aaaaaaa.aaaa.",
".aaaaaaaaaaaaaaaaaaaaaaaaaaaaaaaaaaaaaaaaaaaaaaaaaaaaaaaaaaaaaaaaaaaaa.",
".aa.aaa.aaa.aaa.aaa.aaa.aaa.aaa.aaa.aaa.aaa.aaa.aaa.aaa.aaa.aaa.aaa.aa.",
".aaaaaaaaaaaaaaaaaaaaaaaaaaaaaaaaaaaaaaaaaaaaaaaaaaaaaaaaaaaaaaaaaaaaa.",
".aaaa.aaaaaaa.aaaaaaa.aaaaaaa.aaaaaaa.aaaaaaa.aaaaaaa.aaaaaaa.aaaaaaa..",
".aaaaaaaaaaaaaaaaaaaaaaaaaaaaaaaaaaaaaaaaaaaaaaaaaaaaaaaaaaaaaaaaaaaaa.",
".aa.aaa.aaa.aaa.aaa.aaa.aaa.aaa.aaa.aaa.aaa.aaa.aaa.aaa.aaa.aaa.aaa.aa.",
".aaaaaaaaaaaaaaaaaaaaaaaaaaaaaaaaaaaaaaaaaaaaaaaaaaaaaaaaaaaaaaaaaaaaa.",
"..aaaaaaa.aaaaaaa.aaaaaaa.aaaaaaa.aaaaaaa.aaaaaaa.aaaaaaa.aaaaaaa.aaaa.",
".aaaaaaaaaaaaaaaaaaaaaaaaaaaaaaaaaaaaaaaaaaaaaaaaaaaaaaaaaaaaaaaaaaaaa.",
".aa.aaa.aaa.aaa.aaa.aaa.aaa.aaa.aaa.aaa.aaa.aaa.aaa.aaa.aaa.aaa.aaa.aa.",
".aaaaaaaaaaaaaaaaaaaaaaaaaaaaaaaaaaaaaaaaaaaaaaaaaaaaaaaaaaaaaaaaaaaaa.",
".aaaa.aaaaaaa.aaaaaaa.aaaaaaa.aaaaaaa.aaaaaaa.aaaaaaa.aaaaaaa.aaaaaaa..",
".aaaaaaaaaaaaaaaaaaaaaaaaaaaaaaaaaaaaaaaaaaaaaaaaaaaaaaaaaaaaaaaaaaaaa.",
".aa.aaa.aaa.aaa.aaa.aaa.aaa.aaa.aaa.aaa.aaa.aaa.aaa.aaa.aaa.aaa.aaa.aa.",
".aaaaaaaaaaaaaaaaaaaaaaaaaaaaaaaaaaaaaaaaaaaaaaaaaaaaaaaaaaaaaaaaaaaaa.",
"..aaaaaaa.aaaaaaa.aaaaaaa.aaaaaaa.aaaaaaa.aaaaaaa.aaaaaaa.aaaaaaa.aaaa.",
".aaaaaaaaaaaaaaaaaaaaaaaaaaaaaaaaaaaaaaaaaaaaaaaaaaaaaaaaaaaaaaaaaaaaa.",
".aa.aaa.aaa.aaa.aaa.aaa.aaa.aaa.aaa.aaa.aaa.aaa.aaa.aaa.aaa.aaa.aaa.aa.",
".aaaaaaaaaaaaaaaaaaaaaaaaaaaaaaaaaaaaaaaaaaaaaaaaaaaaaaaaaaaaaaaaaaaaa.",
".aaaa.aaaaaaa.aaaaaaa.aaaaaaa.aaaaaaa.aaaaaaa.aaaaaaa.aaaaaaa.aaaaaaa..",
".aaaaaaaaaaaaaaaaaaaaaaaaaaaaaaaaaaaaaaaaaaaaaaaaaaaaaaaaaaaaaaaaaaaaa.",
".aa.aaa.aaa.aaa.aaa.aaa.aaa.aaa.aaa.aaa.aaa.aaa.aaa.aaa.aaa.aaa.aaa.aa.",
".aaaaaaaaaaaaaaaaaaaaaaaaaaaaaaaaaaaaaaaaaaaaaaaaaaaaaaaaaaaaaaaaaaaaa.",
"..aaaaaaa.aaaaaaa.aaaaaaa.aaaaaaa.aaaaaaa.aaaaaaa.aaaaaaa.aaaaaaa.aaaa.",
".aaaaaaaaaaaaaaaaaaaaaaaaaaaaaaaaaaaaaaaaaaaaaaaaaaaaaaaaaaaaaaaaaaaaa.",
".aa.aaa.aaa.aaa.aaa.aaa.aaa.aaa.aaa.aaa.aaa.aaa.aaa.aaa.aaa.aaa.aaa.aa.",
".aaaaaaaaaaaaaaaaaaaaaaaaaaaaaaaaaaaaaaaaaaaaaaaaaaaaaaaaaaaaaaaaaaaaa.",
".aaaa.aaaaaaa.aaaaaaa.aaaaaaa.aaaaaaa.aaaaaaa.aaaaaaa.aaaaaaa.aaaaaaa..",
".aaaaaaaaaaaaaaaaaaaaaaaaaaaaaaaaaaaaaaaaaaaaaaaaaaaaaaaaaaaaaaaaaaaaa.",
"a.a.aaa.aaa.aaa.aaa.aaa.aaa.aaa.aaa.aaa.aaa.aaa.aaa.aaa.aaa.aaa.aaa.a.a",
"a.aaaaaaaaaaaaaaaaaaaaaaaaaaaaaaaaaaaaaaaaaaaaaaaaaaaaaaaaaaaaaaaaaaa.a",
"aa.aaaaaa.aaaaaaa.aaaaaaa.aaaaaaa.aaaaaaa.aaaaaaa.aaaaaaa.aaaaaaa.aa.aa",
"aaa..aaaaaaaaaaaaaaaaaaaaaaaaaaaaaaaaaaaaaaaaaaaaaaaaaaaaaaaaaaaaa..aaa",
"aaaaa.............................................................aaaaa"
};
