/* XPM */
static char *Empty[] = {
/* width height num_colors chars_per_pixel */
"    71   107        3            1",
/* colors */
". c #000000",
"# c red",
"a c None",
/* pixels */
"aaaaa.............................................................aaaaa",
"aaa..aaaaaaaaaaaaaaaaaaaaaaaaaaaaaaaaaaaaaaaaaaaaaaaaaaaaaaaaaaaaa..aaa",
"aa..aaa.aaa.aaa.aaa.aaa.aaa.aaa.aaa.aaa.aaa.aaa.aaa.aaa.aaa.aaa.aaa..aa",
"a.aaaaaaaaaaaaaaaaaaaaaaaaaaaaaaaaaaaaaaaaaaaaaaaaaaaaaaaaaaaaaaaaaaa.a",
"a.aaa.aaaaaaa.aaaaaaa.aaaaaaa.aaaaaaa.aaaaaaa.aaaaaaa.aaaaaaa.aaaaaaa.a",
".aaaaaaaaaaaaaaaaaaaaaaaaaaaaaaaaaaaaaaaaaaaaaaaaaaaaaaaaaaaaaaaaaaaaa.",
".aa.aaa.aaa.aaa.aaa.aaa.aaa.aaa.aaa.aaa.aaa.aaa.aaa.aaa.aaa.aaa.aaa.aa.",
".aaaaaaaaaaaaaaaaaaaaaaaaaaaaaaaaaaaaaaaaaaaaaaaaaaaaaaaaaaaaaaaaaaaaa.",
"..aaaaaaa.aaaaaaa.aaaaaaa.aaaaaaa.aaaaaaa.aaaaaaa.aaaaaaa.aaaaaaa.aaaa.",
".aaaaaaaaaaaaaaaaaaaaaaaaaaaaaaaaaaaaaaaaaaaaaaaaaaaaaaaaaaaaaaaaaaaaa.",
".aa.aaa.aaa.aaa.aaa.aaa.aaa.aaa.aaa.aaa.aaa.aaa.aaa.aaa.aaa.aaa.aaa.aa.",
".aaaaaaaaaaaaaaaaaaaaaaaaaaaaaaaaaaaaaaaaaaaaaaaaaaaaaaaaaaaaaaaaaaaaa.",
".aaaa.aaaaaaa.aaaaaaa.aaaaaaa.aaaaaaa.aaaaaaa.aaaaaaa.aaaaaaa.aaaaaaa..",
".aaaaaaaaaaaaaaaaaaaaaaaaaaaaaaaaaaaaaaaaaaaaaaaaaaaaaaaaaaaaaaaaaaaaa.",
".aa.aaa.aaa.aaa.aaa.aaa.aaa.aaa.aaa.aaa.aaa.aaa.aaa.aaa.aaa.aaa.aaa.aa.",
".aaaaaaaaaaaaaaaaaaaaaaaaaaaaaaaaaaaaaaaaaaaaaaaaaaaaaaaaaaaaaaaaaaaaa.",
"..aaaaaaa.aaaaaaa.aaaaaaa.aaaaaaa.aaaaaaa.aaaaaaa.aaaaaaa.aaaaaaa.aaaa.",
".aaaaaaaaaaaaaaaaaaaaaaaaaaaaaaaaaaaaaaaaaaaaaaaaaaaaaaaaaaaaaaaaaaaaa.",
".aa.aaa.aaa.aaa.aaa.aaa.aaa.aaa.aaa.aaa.aaa.aaa.aaa.aaa.aaa.aaa.aaa.aa.",
".aaaaaaaaaaaaaaaaaaaaaaaaaaaaaaaaaaaaaaaaaaaaaaaaaaaaaaaaaaaaaaaaaaaaa.",
".aaaa.aaaaaaa.aaaaaaa.aaaaaaa.aaaaaaa.aaaaaaa.aaaaaaa.aaaaaaa.aaaaaaa..",
".aaaaaaaaaaaaaaaaaaaaaaaaaaaaaaaaaaaaaaaaaaaaaaaaaaaaaaaaaaaaaaaaaaaaa.",
".aa.aaa.aaa.aaa.aaa.aaa.aaa.aaa.aaa.aaa.aaa.aaa.aaa.aaa.aaa.aaa.aaa.aa.",
".aaaaaaaaaaaaaaaaaaaaaaaaaaaaaaaaaaaaaaaaaaaaaaaaaaaaaaaaaaaaaaaaaaaaa.",
"..aaaaaaa.aaaaaaa.aaaaaaa.aaaaaaa.aaaaaaa.aaaaaaa.aaaaaaa.aaaaaaa.aaaa.",
".aaaaaaaaaaaaaaaaaaaaaaaaaaaaaaaaaaaaaaaaaaaaaaaaaaaaaaaaaaaaaaaaaaaaa.",
".aa.aaa.aaa.aaa.aaa.aaa.aaa.aaa.aaa.aaa.aaa.aaa.aaa.aaa.aaa.aaa.aaa.aa.",
".aaaaaaaaaaaaaaaaaaaaaaaaaaaaaaaaaaaaaaaaaaaaaaaaaaaaaaaaaaaaaaaaaaaaa.",
".aaaa.aaaaaaa.aaaaaaa.aaaaaaa.aaaaaaa.aaaaaaa.aaaaaaa.aaaaaaa.aaaaaaa..",
".aaaaaaaaaaaaaaaaaaaaaaaaaaaaaaaaaaaaaaaaaaaaaaaaaaaaaaaaaaaaaaaaaaaaa.",
".aa.aaa.aaa.aaa.aaa.aaa.aaa.aaa.aaa.aaa.aaa.aaa.aaa.aaa.aaa.aaa.aaa.aa.",
".aaaaaaaaaaaaaaaaaaaaaaaaaaaaaaaaaaaaaaaaaaaaaaaaaaaaaaaaaaaaaaaaaaaaa.",
"..aaaaaaa.aaaaaaa.aaaaaaa.aaaaaaa.aaaaaaa.aaaaaaa.aaaaaaa.aaaaaaa.aaaa.",
".aaaaaaaaaaaaaaaaaaaaaaaaaaaaaaaaaaaaaaaaaaaaaaaaaaaaaaaaaaaaaaaaaaaaa.",
".aa.aaa.aaa.aaa.aaa.aaa.aaa.aaa.aaa.aaa.aaa.aaa.aaa.aaa.aaa.aaa.aaa.aa.",
".aaaaaaaaaaaaaaaaaaaaaaaaaaaaaaaaaa#aaaaaaaaaaaaaaaaaaaaaaaaaaaaaaaaaa.",
".aaaa.aaaaaaa.aaaaaaa.aaaaaaa.aaaaa#a.aaaaaaa.aaaaaaa.aaaaaaa.aaaaaaa..",
".aaaaaaaaaaaaaaaaaaaaaaaaaaaaaaaaa###aaaaaaaaaaaaaaaaaaaaaaaaaaaaaaaaa.",
".aa.aaa.aaa.aaa.aaa.aaa.aaa.aaa.a#####a.aaa.aaa.aaa.aaa.aaa.aaa.aaa.aa.",
".aaaaaaaaaaaaaaaaaaaaaaaaaaaaaaaa#####aaaaaaaaaaaaaaaaaaaaaaaaaaaaaaaa.",
"..aaaaaaa.aaaaaaa.aaaaaaa.aaaaaa#######aa.aaaaaaa.aaaaaaa.aaaaaaa.aaaa.",
".aaaaaaaaaaaaaaaaaaaaaaaaaaaaaa#########aaaaaaaaaaaaaaaaaaaaaaaaaaaaaa.",
".aa.aaa.aaa.aaa.aaa.aaa.aaa.aaa#########aaa.aaa.aaa.aaa.aaa.aaa.aaa.aa.",
".aaaaaaaaaaaaaaaaaaaaaaaaaaaaa###########aaaaaaaaaaaaaaaaaaaaaaaaaaaaa.",
".aaaa.aaaaaaa.aaaaaaa.aaaaaaa#############aaa.aaaaaaa.aaaaaaa.aaaaaaa..",
".aaaaaaaaaaaaaaaaaaaaaaaaaaa###############aaaaaaaaaaaaaaaaaaaaaaaaaaa.",
".aa.aaa.aaa.aaa.aaa.aaa.aaa#################aaa.aaa.aaa.aaa.aaa.aaa.aa.",
".aaaaaaaaaaaaaaaaaaaaaaaaa###################aaaaaaaaaaaaaaaaaaaaaaaaa.",
"..aaaaaaa.aaaaaaa.aaaaaaa#####################aaa.aaaaaaa.aaaaaaa.aaaa.",
".aaaaaaaaaaaaaaaaaaaaaaa#######################aaaaaaaaaaaaaaaaaaaaaaa.",
".aa.aaa.aaa.aaa.aaa.aaa#########################aaa.aaa.aaa.aaa.aaa.aa.",
".aaaaaaaaaaaaaaaaaaaaa###########################aaaaaaaaaaaaaaaaaaaaa.",
".aaaa.aaaaaaa.aaaaaaa#############################aaa.aaaaaaa.aaaaaaa..",
".aaaaaaaaaaaaaaaaaaa###############################aaaaaaaaaaaaaaaaaaa.",
".aa.aaa.aaa.aaa.aaa.a#############################a.aaa.aaa.aaa.aaa.aa.",
".aaaaaaaaaaaaaaaaaaaaa###########################aaaaaaaaaaaaaaaaaaaaa.",
"..aaaaaaa.aaaaaaa.aaaaa#########################a.aaaaaaa.aaaaaaa.aaaa.",
".aaaaaaaaaaaaaaaaaaaaaaa#######################aaaaaaaaaaaaaaaaaaaaaaa.",
".aa.aaa.aaa.aaa.aaa.aaa.a#####################a.aaa.aaa.aaa.aaa.aaa.aa.",
".aaaaaaaaaaaaaaaaaaaaaaaaa###################aaaaaaaaaaaaaaaaaaaaaaaaa.",
".aaaa.aaaaaaa.aaaaaaa.aaaaa#################a.aaaaaaa.aaaaaaa.aaaaaaa..",
".aaaaaaaaaaaaaaaaaaaaaaaaaaa###############aaaaaaaaaaaaaaaaaaaaaaaaaaa.",
".aa.aaa.aaa.aaa.aaa.aaa.aaa.a#############a.aaa.aaa.aaa.aaa.aaa.aaa.aa.",
".aaaaaaaaaaaaaaaaaaaaaaaaaaaaa###########aaaaaaaaaaaaaaaaaaaaaaaaaaaaa.",
"..aaaaaaa.aaaaaaa.aaaaaaa.aaaaa#########a.aaaaaaa.aaaaaaa.aaaaaaa.aaaa.",
".aaaaaaaaaaaaaaaaaaaaaaaaaaaaaa#########aaaaaaaaaaaaaaaaaaaaaaaaaaaaaa.",
".aa.aaa.aaa.aaa.aaa.aaa.aaa.aaa.#######.aaa.aaa.aaa.aaa.aaa.aaa.aaa.aa.",
".aaaaaaaaaaaaaaaaaaaaaaaaaaaaaaaa#####aaaaaaaaaaaaaaaaaaaaaaaaaaaaaaaa.",
".aaaa.aaaaaaa.aaaaaaa.aaaaaaa.aaa#####aaaaaaa.aaaaaaa.aaaaaaa.aaaaaaa..",
".aaaaaaaaaaaaaaaaaaaaaaaaaaaaaaaaa###aaaaaaaaaaaaaaaaaaaaaaaaaaaaaaaaa.",
".aa.aaa.aaa.aaa.aaa.aaa.aaa.aaa.aaa#aaa.aaa.aaa.aaa.aaa.aaa.aaa.aaa.aa.",
".aaaaaaaaaaaaaaaaaaaaaaaaaaaaaaaaaa#aaaaaaaaaaaaaaaaaaaaaaaaaaaaaaaaaa.",
"..aaaaaaa.aaaaaaa.aaaaaaa.aaaaaaa.aaaaaaa.aaaaaaa.aaaaaaa.aaaaaaa.aaaa.",
".aaaaaaaaaaaaaaaaaaaaaaaaaaaaaaaaaaaaaaaaaaaaaaaaaaaaaaaaaaaaaaaaaaaaa.",
".aa.aaa.aaa.aaa.aaa.aaa.aaa.aaa.aaa.aaa.aaa.aaa.aaa.aaa.aaa.aaa.aaa.aa.",
".aaaaaaaaaaaaaaaaaaaaaaaaaaaaaaaaaaaaaaaaaaaaaaaaaaaaaaaaaaaaaaaaaaaaa.",
".aaaa.aaaaaaa.aaaaaaa.aaaaaaa.aaaaaaa.aaaaaaa.aaaaaaa.aaaaaaa.aaaaaaa..",
".aaaaaaaaaaaaaaaaaaaaaaaaaaaaaaaaaaaaaaaaaaaaaaaaaaaaaaaaaaaaaaaaaaaaa.",
".aa.aaa.aaa.aaa.aaa.aaa.aaa.aaa.aaa.aaa.aaa.aaa.aaa.aaa.aaa.aaa.aaa.aa.",
".aaaaaaaaaaaaaaaaaaaaaaaaaaaaaaaaaaaaaaaaaaaaaaaaaaaaaaaaaaaaaaaaaaaaa.",
"..aaaaaaa.aaaaaaa.aaaaaaa.aaaaaaa.aaaaaaa.aaaaaaa.aaaaaaa.aaaaaaa.aaaa.",
".aaaaaaaaaaaaaaaaaaaaaaaaaaaaaaaaaaaaaaaaaaaaaaaaaaaaaaaaaaaaaaaaaaaaa.",
".aa.aaa.aaa.aaa.aaa.aaa.aaa.aaa.aaa.aaa.aaa.aaa.aaa.aaa.aaa.aaa.aaa.aa.",
".aaaaaaaaaaaaaaaaaaaaaaaaaaaaaaaaaaaaaaaaaaaaaaaaaaaaaaaaaaaaaaaaaaaaa.",
".aaaa.aaaaaaa.aaaaaaa.aaaaaaa.aaaaaaa.aaaaaaa.aaaaaaa.aaaaaaa.aaaaaaa..",
".aaaaaaaaaaaaaaaaaaaaaaaaaaaaaaaaaaaaaaaaaaaaaaaaaaaaaaaaaaaaaaaaaaaaa.",
".aa.aaa.aaa.aaa.aaa.aaa.aaa.aaa.aaa.aaa.aaa.aaa.aaa.aaa.aaa.aaa.aaa.aa.",
".aaaaaaaaaaaaaaaaaaaaaaaaaaaaaaaaaaaaaaaaaaaaaaaaaaaaaaaaaaaaaaaaaaaaa.",
"..aaaaaaa.aaaaaaa.aaaaaaa.aaaaaaa.aaaaaaa.aaaaaaa.aaaaaaa.aaaaaaa.aaaa.",
".aaaaaaaaaaaaaaaaaaaaaaaaaaaaaaaaaaaaaaaaaaaaaaaaaaaaaaaaaaaaaaaaaaaaa.",
".aa.aaa.aaa.aaa.aaa.aaa.aaa.aaa.aaa.aaa.aaa.aaa.aaa.aaa.aaa.aaa.aaa.aa.",
".aaaaaaaaaaaaaaaaaaaaaaaaaaaaaaaaaaaaaaaaaaaaaaaaaaaaaaaaaaaaaaaaaaaaa.",
".aaaa.aaaaaaa.aaaaaaa.aaaaaaa.aaaaaaa.aaaaaaa.aaaaaaa.aaaaaaa.aaaaaaa..",
".aaaaaaaaaaaaaaaaaaaaaaaaaaaaaaaaaaaaaaaaaaaaaaaaaaaaaaaaaaaaaaaaaaaaa.",
".aa.aaa.aaa.aaa.aaa.aaa.aaa.aaa.aaa.aaa.aaa.aaa.aaa.aaa.aaa.aaa.aaa.aa.",
".aaaaaaaaaaaaaaaaaaaaaaaaaaaaaaaaaaaaaaaaaaaaaaaaaaaaaaaaaaaaaaaaaaaaa.",
"..aaaaaaa.aaaaaaa.aaaaaaa.aaaaaaa.aaaaaaa.aaaaaaa.aaaaaaa.aaaaaaa.aaaa.",
".aaaaaaaaaaaaaaaaaaaaaaaaaaaaaaaaaaaaaaaaaaaaaaaaaaaaaaaaaaaaaaaaaaaaa.",
".aa.aaa.aaa.aaa.aaa.aaa.aaa.aaa.aaa.aaa.aaa.aaa.aaa.aaa.aaa.aaa.aaa.aa.",
".aaaaaaaaaaaaaaaaaaaaaaaaaaaaaaaaaaaaaaaaaaaaaaaaaaaaaaaaaaaaaaaaaaaaa.",
".aaaa.aaaaaaa.aaaaaaa.aaaaaaa.aaaaaaa.aaaaaaa.aaaaaaa.aaaaaaa.aaaaaaa..",
".aaaaaaaaaaaaaaaaaaaaaaaaaaaaaaaaaaaaaaaaaaaaaaaaaaaaaaaaaaaaaaaaaaaaa.",
"a.a.aaa.aaa.aaa.aaa.aaa.aaa.aaa.aaa.aaa.aaa.aaa.aaa.aaa.aaa.aaa.aaa.a.a",
"a.aaaaaaaaaaaaaaaaaaaaaaaaaaaaaaaaaaaaaaaaaaaaaaaaaaaaaaaaaaaaaaaaaaa.a",
"aa.aaaaaa.aaaaaaa.aaaaaaa.aaaaaaa.aaaaaaa.aaaaaaa.aaaaaaa.aaaaaaa.aa.aa",
"aaa..aaaaaaaaaaaaaaaaaaaaaaaaaaaaaaaaaaaaaaaaaaaaaaaaaaaaaaaaaaaaa..aaa",
"aaaaa.............................................................aaaaa"
};
