/* XPM */
static char *noname[] = {
/* width height ncolors chars_per_pixel */
"67 91 2 1",
/* colors */
"  c #000000",
". c None",
/* pixels */
".......                                                     .......",
"....   .....................................................   ....",
"... ... ... ... ... ... ... ... ... ... ... ... ... ... ... ... ...",
".. ............................................................. ..",
". ... ....... ....... ....... ....... ....... ....... ....... ... .",
". ............................................................... .",
". . ... ... ... ... ... ... ... ... ... ... ... ... ... ... ... . .",
" ................................................................. ",
"  ....... ....... ....... ....... ....... ....... ....... .......  ",
" ................................................................. ",
" .. ... ... ... ... ... ... ... ... ... ... ... ... ... ... ... .. ",
" ................................................................. ",
" .... ....... ....... ....... ....... ....... ....... ....... .... ",
" ................................................................. ",
" .. ... ... ... ... ... ... ... ... ... ... ... ... ... ... ... .. ",
" ................................................................. ",
"  ....... ....... ....... ....... ....... ....... ....... .......  ",
" ................................................................. ",
" .. ... ... ... ... ... ... ... ... ... ... ... ... ... ... ... .. ",
" ................................................................. ",
" .... ....... ....... ....... ....... ....... ....... ....... .... ",
" ................................................................. ",
" .. ... ... ... ... ... ... ... ... ... ... ... ... ... ... ... .. ",
" ................................................................. ",
"  ....... ....... ....... ....... ....... ....... ....... .......  ",
" ................................................................. ",
" .. ... ... ... ... ... ... ... ... ... ... ... ... ... ... ... .. ",
" ..............................     .............................. ",
" .... ....... ....... .......         ....... ....... ....... .... ",
" ...........................           ........................... ",
" .. ... ... ... ... ... ...             ... ... ... ... ... ... .. ",
" .........................               ......................... ",
"  ....... ....... .......                 ....... ....... .......  ",
" ........................                 ........................ ",
" .. ... ... ... ... ... .                 . ... ... ... ... ... .. ",
" ........................                 ........................ ",
" .... ....... ....... ...                 ... ....... ....... .... ",
" ........................                 ........................ ",
" .. ... ... ... ... ... ..               .. ... ... ... ... ... .. ",
" .........................               ......................... ",
"  ....... ....... ....... .             . ....... ....... .......  ",
" ....................     ..           ..     .................... ",
" .. ... ... ... ...         .         .         ... ... ... ... .. ",
" .................           ..     ..           ................. ",
" .... ....... ...             ..   ..             ... ....... .... ",
" ...............               .   .               ............... ",
" .. ... ... ...                                     ... ... ... .. ",
" ..............                                     .............. ",
"  ....... .....                                     ..... .......  ",
" ..............                                     .............. ",
" .. ... ... ...                                     ... ... ... .. ",
" ..............                                     .............. ",
" .... ....... ..               .   .               .. ....... .... ",
" ...............               .   .               ............... ",
" .. ... ... ... .             .     .             . ... ... ... .. ",
" .................            ..   ...           ................. ",
"  ....... ....... .         ....   ....         . ....... .......  ",
" ....................     .....     .....     .................... ",
" .. ... ... ... ... ... ... ...     ... ... ... ... ... ... ... .. ",
" .............................       ............................. ",
" .... ....... ....... .......         ....... ....... ....... .... ",
" ............................         ............................ ",
" .. ... ... ... ... ... ...             ... ... ... ... ... ... .. ",
" ................................................................. ",
"  ....... ....... ....... ....... ....... ....... ....... .......  ",
" ................................................................. ",
" .. ... ... ... ... ... ... ... ... ... ... ... ... ... ... ... .. ",
" ................................................................. ",
" .... ....... ....... ....... ....... ....... ....... ....... .... ",
" ................................................................. ",
" .. ... ... ... ... ... ... ... ... ... ... ... ... ... ... ... .. ",
" ................................................................. ",
"  ....... ....... ....... ....... ....... ....... ....... .......  ",
" ................................................................. ",
" .. ... ... ... ... ... ... ... ... ... ... ... ... ... ... ... .. ",
" ................................................................. ",
" .... ....... ....... ....... ....... ....... ....... ....... .... ",
" ................................................................. ",
" .. ... ... ... ... ... ... ... ... ... ... ... ... ... ... ... .. ",
" ................................................................. ",
"  ....... ....... ....... ....... ....... ....... ....... .......  ",
" ................................................................. ",
" .. ... ... ... ... ... ... ... ... ... ... ... ... ... ... ... .. ",
" ................................................................. ",
". ... ....... ....... ....... ....... ....... ....... ....... ... .",
". ............................................................... .",
". . ... ... ... ... ... ... ... ... ... ... ... ... ... ... ... . .",
".. ............................................................. ..",
"... ..... ....... ....... ....... ....... ....... ....... ..... ...",
"....   .....................................................   ....",
".......                                                     ......."
};
