/* XPM */
static char *Cardback0[] = {
/* width height num_colors chars_per_pixel */
"    79   123        3            1",
/* colors */
". c #ffffff",
"# c #474747",
"a c #bebebe",
/* pixels */
"...............................................................................",
"...............................................................................",
"...............................................................................",
"...............................................................................",
"...............................................................................",
"........###############################################################........",
".......#aaaaaaaaaaaaaaaaaaaaaaaaaaaaaaaaaaaaaaaaaaaaaaaaaaaaaaaaaaaaaaa#.......",
"......#aaaaaaaaaaaaaaaaaaaaaaaaaaaaaaaaaaaaaaaaaaaaaaaaaaaaaaaaaaaaaaaaa#......",
".....#aa###############################################################aa#.....",
".....#aa#aaaaaaaaaaaaaaaaaaaaaaaaaaaaaaaaaaaaaaaaaaaaaaaaaaaaaaaaaaaaa#aa#.....",
".....#aa#aaaaaaaaaaaaaaaaaaaaaaaaaaaaaaaaaaaaaaaaaaaaaaaaaaaaaaaaaaaaa#aa#.....",
".....#aa#aaaa####aaaaa#####aaaaa#####aaaaa#####aaaaa#####aaaaa####aaaa#aa#.....",
".....#aa#aaa#aaaa##a##aaaaa##a##aaaaa##a##aaaaa##a##aaaaa##a##aaaa#aaa#aa#.....",
".....#aa#aa#aaaaaaa#aaaaaaaaa#aaaaaaaaa#aaaaaaaaa#aaaaaaaaa#aaaaaaa#aa#aa#.....",
".....#aa#aa#aaaaa##a#aaaaaaa#a#aaaaaaa#a#aaaaaaa#a#aaaaaaa#a#aaaaaa#aa#aa#.....",
".....#aa#aa#aaaa#aaaa##aaa##aaa##aaa##aaa##aaa##aaa##aaa##aaa##aaaa#aa#aa#.....",
".....#aa#aa#aaa#aaaaaaa###aaaaaaa###aaaaaaa###aaaaaaa###aaaaaaa#aaa#aa#aa#.....",
".....#aa#aaa#a#aaaaaaaaaaaaaaaaaaaaaaaaaaaaaaaaaaaaaaaaaaaaaaaaa#a#aaa#aa#.....",
".....#aa#aaa#a#aaaaaaaaaaaaaaaaaaaaaaaaaaaaaaaaaaaaaaaaaaaaaaaaa#a#aaa#aa#.....",
".....#aa#aaaa#aaaaa#a#a#a#a#a#a#a#a#a#a#a#a#a#a#a#a#a#a#a#a#aaaaa#aaaa#aa#.....",
".....#aa#aaa#a#aaaaaaaaaaaaaaaaaaaaaaaaaaaaaaaaaaaaaaaaaaaaaaaaa#a#aaa#aa#.....",
".....#aa#aaa#aa#aaa#aaa####aaa#aaaaaaaa#aaaaaaaa#aaa####aaa#aaa#aa#aaa#aa#.....",
".....#aa#aa#aaa#aaaaaa#aaaa#aaa#aaaaaaa#aaaaaaa#aaa#aaaa#aaaaaa#aaa#aa#aa#.....",
".....#aa#aa#aaaa#aa#a#aa##aa#aaa##aaaa#a#aaaa##aaa#aa##aa#a#aa#aaaa#aa#aa#.....",
".....#aa#aa#aaaa#aaaa#a#aaaa#aaaaa####aaa####aaaaa#aaaa#a#aaaa#aaaa#aa#aa#.....",
".....#aa#aa#aaaa#aa#a#a#aaa#aaaa##aaaaaaaaaaa##aaaa#aaa#a#a#aa#aaaa#aa#aa#.....",
".....#aa#aa#aaa#aaaaa#aa###aaaa#aaaaaaaaaaaaaaa#aaaa###aa#aaaaa#aaa#aa#aa#.....",
".....#aa#aaa#aa#aaa#aa#aaaaaaa#aaaaaaa#a#aaaaaaa#aaaaaaa#aa#aaa#aa#aaa#aa#.....",
".....#aa#aaa#a#aaaaaaa#aaaaaaa#aa##aaaa#aaaa##aa#aaaaaaa#aaaaaaa#a#aaa#aa#.....",
".....#aa#aaaa#aaaaa#aaa#aaaaaa#aa###aaa#aaa###aa#aaaaaa#aaa#aaaaa#aaaa#aa#.....",
".....#aa#aaa#a#aaaaaaa#a#aaaaa#aaaaa#aa#aa#aaaaa#aaaaa#a#aaaaaaa#a#aaa#aa#.....",
".....#aa#aaa#aa#aaa#aa#a#aaaaaa#aaaa#aa#aa#aaaa#aaaaaa#a#aa#aaa#aa#aaa#aa#.....",
".....#aa#aa#aaa#aaaaaaaa#aaaaaa#aaaa#aa#aa#aaaa#aaaaaa#aaaaaaaa#aaa#aa#aa#.....",
".....#aa#aa#aaaa#aa#aa#aa#aaaaaa#aa#aaa#aaa#aa#aaaaaa#aa#aa#aa#aaaa#aa#aa#.....",
".....#aa#aa#aaaa#aaaa#a#a#aaaaaaa##aaa#a#aaa##aaaaaaa#a#a#aaaa#aaaa#aa#aa#.....",
".....#aa#aa#aaaa#aa#a#a#a#aaaaaaaaaaa##a##aaaaaaaaaaa#a#a#a#aa#aaaa#aa#aa#.....",
".....#aa#aa#aaa#aaaaaa#aa#aaa#aaaaaaa#aaa#aaaaaaa#aaa#aa#aaaaaa#aaa#aa#aa#.....",
".....#aa#aaa#aa#aaa#aaaa#aaaa##aaaa##aaaaa##aaaa##aaaa#aaaa#aaa#aa#aaa#aa#.....",
".....#aa#aaa#a#aaaaaaaaa#aaaaa#####aaaaaaaaa#####aaaaa#aaaaaaaaa#a#aaa#aa#.....",
".....#aa#aaaa#aaaaa#aaaa#aaaaaaaaaaaaaaaaaaaaaaaaaaaaa#aaaa#aaaaa#aaaa#aa#.....",
".....#aa#aaa#a#aaaaaaaa#aaaaaaaaaaaaaaaaaaaaaaaaaaaaaaa#aaaaaaaa#a#aaa#aa#.....",
".....#aa#aaa#aa#aaa#a##aaaaaaaaaaaaaaaaaaaaaaaaaaaaaaaaa##a#aaa#aa#aaa#aa#.....",
".....#aa#aa#aaa#aaaaaaaaaaaaaaaaaaaaaaaaaaaaaaaaaaaaaaaaaaaaaaa#aaa#aa#aa#.....",
".....#aa#aa#aaaa#aa#aaaaaaaaaaaaaaaaaaaaaaaaaaaaaaaaaaaaaaa#aa#aaaa#aa#aa#.....",
".....#aa#aa#aaaa#aaaaaaaaaaaaaaaaaaaaaaaaaaaaaaaaaaaaaaaaaaaaa#aaaa#aa#aa#.....",
".....#aa#aa#aaaa#aa#aaaaaaaaaaaaa####aaaaaaaaaaaaaaaaaaaaaa#aa#aaaa#aa#aa#.....",
".....#aa#aa#aaa#aaaaaaaaaaaaaaaaa#aaa#aaaaaaaaaaaaaaaaaaaaaaaaa#aaa#aa#aa#.....",
".....#aa#aaa#aa#aaa#aaaaaaaaaaaaa#aaa#a#aaaaaaaaaaaaaaaaaaa#aaa#aa#aaa#aa#.....",
".....#aa#aaa#a#aaaaaaaaaaaaaaaaaa#aaa#aaaaaaaaaaaaaaaaaaaaaaaaaa#a#aaa#aa#.....",
".....#aa#aaaa#aaaaa#aaaaaaaaaaaaa####aa#aa###aaaaaaaaaaaaaa#aaaaa#aaaa#aa#.....",
".....#aa#aaa#a#aaaaaaaaaaaaaaaaaa#aaa#a#a#aaaaaaaaaaaaaaaaaaaaaa#a#aaa#aa#.....",
".....#aa#aaa#aa#aaa#aaaaaaaaaaaaa#aaa#a#a#aaaaaaaaaaaaaaaaa#aaa#aa#aaa#aa#.....",
".....#aa#aa#aaa#aaaaaaaa#####aaaa#aaa#a#a#aaaaaaaa#####aaaaaaaa#aaa#aa#aa#.....",
".....#aa#aa#aaaa#aa#aaa#aaaa##aaa#aaa#a#aa###aaaa##aaaa#aaa#aa#aaaa#aa#aa#.....",
".....#aa#aa#aaaa#aaaaa#aaaaaa#aaaaaaaaaaaaaaaaaaa#aaaaaa#aaaaa#aaaa#aa#aa#.....",
".....#aa#aa#aaaa#aa#aa#aaa##aa#aaaaaaaaaaaaaaaaa#aa##aaa#aa#aa#aaaa#aa#aa#.....",
".....#aa#aa#aaa#aaaaaaa#aaa#aaa##aaaaaaaaaaaaa##aaa#aaa#aaaaaaa#aaa#aa#aa#.....",
".....#aa#aaa#aa#aaa#aaa#####aaaaa#############aaaaa#####aaa#aaa#aa#aaa#aa#.....",
".....#aa#aaa#a#aaaaaaaaaaaaaaaa##aaaaaaaaaaaaa##aaaaaaaaaaaaaaaa#a#aaa#aa#.....",
".....#aa#aaaa#aaaaa#aaaaaaaaaa#aa##aaaa#aaaa##aa#aaaaaaaaaa#aaaaa#aaaa#aa#.....",
".....#aa#aaa#a#aaaaaaaaaaaaa##aaaaa##a#a#a##aaaaa##aaaaaaaaaaaaa#a#aaa#aa#.....",
".....#aa#aaa#a#aaaa#a#a#a###aa##a##aa#a#a#aa##a##aa###a#a#a#aaaa#a#aaa#aa#.....",
".....#aa#aaa#a#aaaaaaaaaaaaa##aaaaa##a#a#a##aaaaa##aaaaaaaaaaaaa#a#aaa#aa#.....",
".....#aa#aaaa#aaaaa#aaaaaaaaaa#aa##aaaa#aaaa##aa#aaaaaaaaaa#aaaaa#aaaa#aa#.....",
".....#aa#aaa#a#aaaaaaaaaaaaaaaa##aaaaaaaaaaaaa##aaaaaaaaaaaaaaaa#a#aaa#aa#.....",
".....#aa#aaa#aa#aaa#aaa#####aaaaa#############aaaaa#####aaa#aaa#aa#aaa#aa#.....",
".....#aa#aa#aaa#aaaaaaa#aaa#aaa##aaaaaaaaaaaaa##aaa#aaa#aaaaaaa#aaa#aa#aa#.....",
".....#aa#aa#aaaa#aa#aa#aaa##aa#aaaaaaaaaaaaaaaaa#aa##aaa#aa#aa#aaaa#aa#aa#.....",
".....#aa#aa#aaaa#aaaaa#aaaaaa#aaaaaaaaaaaaaaaaaaa#aaaaaa#aaaaa#aaaa#aa#aa#.....",
".....#aa#aa#aaaa#aa#aaa#aaaa##aaaa###aa#a#aaa#aaa##aaaa#aaa#aa#aaaa#aa#aa#.....",
".....#aa#aa#aaa#aaaaaaaa#####aaaaaaaa#a#a#aaa#aaaa#####aaaaaaaa#aaa#aa#aa#.....",
".....#aa#aaa#aa#aaa#aaaaaaaaaaaaaaaaa#a#a#aaa#aaaaaaaaaaaaa#aaa#aa#aaa#aa#.....",
".....#aa#aaa#a#aaaaaaaaaaaaaaaaaaaaaa#a#a#aaa#aaaaaaaaaaaaaaaaaa#a#aaa#aa#.....",
".....#aa#aaaa#aaaaa#aaaaaaaaaaaaaa###aa#aa####aaaaaaaaaaaaa#aaaaa#aaaa#aa#.....",
".....#aa#aaa#a#aaaaaaaaaaaaaaaaaaaaaaaaaa#aaa#aaaaaaaaaaaaaaaaaa#a#aaa#aa#.....",
".....#aa#aaa#aa#aaa#aaaaaaaaaaaaaaaaaaa#a#aaa#aaaaaaaaaaaaa#aaa#aa#aaa#aa#.....",
".....#aa#aa#aaa#aaaaaaaaaaaaaaaaaaaaaaaaa#aaa#aaaaaaaaaaaaaaaaa#aaa#aa#aa#.....",
".....#aa#aa#aaaa#aa#aaaaaaaaaaaaaaaaaaaaaa####aaaaaaaaaaaaa#aa#aaaa#aa#aa#.....",
".....#aa#aa#aaaa#aaaaaaaaaaaaaaaaaaaaaaaaaaaaaaaaaaaaaaaaaaaaa#aaaa#aa#aa#.....",
".....#aa#aa#aaaa#aa#aaaaaaaaaaaaaaaaaaaaaaaaaaaaaaaaaaaaaaa#aa#aaaa#aa#aa#.....",
".....#aa#aa#aaa#aaaaaaaaaaaaaaaaaaaaaaaaaaaaaaaaaaaaaaaaaaaaaaa#aaa#aa#aa#.....",
".....#aa#aaa#aa#aaa#a##aaaaaaaaaaaaaaaaaaaaaaaaaaaaaaaaa##a#aaa#aa#aaa#aa#.....",
".....#aa#aaa#a#aaaaaaaa#aaaaaaaaaaaaaaaaaaaaaaaaaaaaaaa#aaaaaaaa#a#aaa#aa#.....",
".....#aa#aaaa#aaaaa#aaaa#aaaaaaaaaaaaaaaaaaaaaaaaaaaaa#aaaa#aaaaa#aaaa#aa#.....",
".....#aa#aaa#a#aaaaaaaaa#aaaaa#####aaaaaaaaa#####aaaaa#aaaaaaaaa#a#aaa#aa#.....",
".....#aa#aaa#aa#aaa#aaaa#aaaa##aaaa##aaaaa##aaaa##aaaa#aaaa#aaa#aa#aaa#aa#.....",
".....#aa#aa#aaa#aaaaaa#aa#aaa#aaaaaaa#aaa#aaaaaaa#aaa#aa#aaaaaa#aaa#aa#aa#.....",
".....#aa#aa#aaaa#aa#a#a#a#aaaaaaaaaaa##a##aaaaaaaaaaa#a#a#a#aa#aaaa#aa#aa#.....",
".....#aa#aa#aaaa#aaaa#a#a#aaaaaaa##aaa#a#aaa##aaaaaaa#a#a#aaaa#aaaa#aa#aa#.....",
".....#aa#aa#aaaa#aa#aa#aa#aaaaaa#aa#aaa#aaa#aa#aaaaaa#aa#aa#aa#aaaa#aa#aa#.....",
".....#aa#aa#aaa#aaaaaaaa#aaaaaa#aaaa#aa#aa#aaaa#aaaaaa#aaaaaaaa#aaa#aa#aa#.....",
".....#aa#aaa#aa#aaa#aa#a#aaaaaa#aaaa#aa#aa#aaaa#aaaaaa#a#aa#aaa#aa#aaa#aa#.....",
".....#aa#aaa#a#aaaaaaa#a#aaaaa#aaaaa#aa#aa#aaaaa#aaaaa#a#aaaaaaa#a#aaa#aa#.....",
".....#aa#aaaa#aaaaa#aaa#aaaaaa#aa###aaa#aaa###aa#aaaaaa#aaa#aaaaa#aaaa#aa#.....",
".....#aa#aaa#a#aaaaaaa#aaaaaaa#aa##aaaa#aaaa##aa#aaaaaaa#aaaaaaa#a#aaa#aa#.....",
".....#aa#aaa#aa#aaa#aa#aaaaaaa#aaaaaaa#a#aaaaaaa#aaaaaaa#aa#aaa#aa#aaa#aa#.....",
".....#aa#aa#aaa#aaaaa#aa###aaaa#aaaaaaaaaaaaaaa#aaaa###aa#aaaaa#aaa#aa#aa#.....",
".....#aa#aa#aaaa#aa#a#a#aaa#aaaa##aaaaaaaaaaa##aaaa#aaa#a#a#aa#aaaa#aa#aa#.....",
".....#aa#aa#aaaa#aaaa#a#aaaa#aaaaa####aaa####aaaaa#aaaa#a#aaaa#aaaa#aa#aa#.....",
".....#aa#aa#aaaa#aa#a#aa##aa#aaa##aaaa#a#aaaa##aaa#aa##aa#a#aa#aaaa#aa#aa#.....",
".....#aa#aa#aaa#aaaaaa#aaaa#aaa#aaaaaaa#aaaaaaa#aaa#aaaa#aaaaaa#aaa#aa#aa#.....",
".....#aa#aaa#aa#aaa#aaa####aaa#aaaaaaaa#aaaaaaaa#aaa####aaa#aaa#aa#aaa#aa#.....",
".....#aa#aaa#a#aaaaaaaaaaaaaaaaaaaaaaaaaaaaaaaaaaaaaaaaaaaaaaaaa#a#aaa#aa#.....",
".....#aa#aaaa#aaaaa#a#a#a#a#a#a#a#a#a#a#a#a#a#a#a#a#a#a#a#a#aaaaa#aaaa#aa#.....",
".....#aa#aaa#a#aaaaaaaaaaaaaaaaaaaaaaaaaaaaaaaaaaaaaaaaaaaaaaaaa#a#aaa#aa#.....",
".....#aa#aaa#a#aaaaaaaaaaaaaaaaaaaaaaaaaaaaaaaaaaaaaaaaaaaaaaaaa#a#aaa#aa#.....",
".....#aa#aa#aaa#aaaaaaa###aaaaaaa###aaaaaaa###aaaaaaa###aaaaaaa#aaa#aa#aa#.....",
".....#aa#aa#aaaa##aaa##aaa##aaa##aaa##aaa##aaa##aaa##aaa##aaaa#aaaa#aa#aa#.....",
".....#aa#aa#aaaaaa#a#aaaaaaa#a#aaaaaaa#a#aaaaaaa#a#aaaaaaa#a##aaaaa#aa#aa#.....",
".....#aa#aa#aaaaaaa#aaaaaaaaa#aaaaaaaaa#aaaaaaaaa#aaaaaaaaa#aaaaaaa#aa#aa#.....",
".....#aa#aaa#aaaa##a##aaaaa##a##aaaaa##a##aaaaa##a##aaaaa##a##aaaa#aaa#aa#.....",
".....#aa#aaaa####aaaaa#####aaaaa#####aaaaa#####aaaaa#####aaaaa####aaaa#aa#.....",
".....#aa#aaaaaaaaaaaaaaaaaaaaaaaaaaaaaaaaaaaaaaaaaaaaaaaaaaaaaaaaaaaaa#aa#.....",
".....#aa#aaaaaaaaaaaaaaaaaaaaaaaaaaaaaaaaaaaaaaaaaaaaaaaaaaaaaaaaaaaaa#aa#.....",
".....#aa###############################################################aa#.....",
"......#aaaaaaaaaaaaaaaaaaaaaaaaaaaaaaaaaaaaaaaaaaaaaaaaaaaaaaaaaaaaaaaaa#......",
".......#aaaaaaaaaaaaaaaaaaaaaaaaaaaaaaaaaaaaaaaaaaaaaaaaaaaaaaaaaaaaaaa#.......",
"........###############################################################........",
"...............................................................................",
"...............................................................................",
"...............................................................................",
"...............................................................................",
"..............................................................................."
};
