/* XPM */
static char * Ranks_xpm[] = {
/* width height num_colors chars_per_pixel */
"108 70 4 1",
/* colors */
" 	c None",
".	c black",
"X	c #c00000",
"o	c #808080",
/* pixels */
"   ...     .....       ....   XXX     XXXXX       XXXX          ....  ..  .....            XXXX  XX  XXXXX  ",
"   ...    .......      ....   XXX    XXXXXXX      XXXX         ...... .. .......          XXXXXX XX XXXXXXX ",
"  o...o  ...   ...      ..   XXXXX  XXX   XXX      XX          ..  .. .....   ...         XX  XX XXXXX   XXX",
"  o. .o  ..     .       ..   XX XX  XX     X       XX          ..  .. ....     .          XX  XX XXXX     X ",
"  .. ..  ..             ..   XX XX  XX             XX          ..  .. ....                XX  XX XXXX       ",
"  .o o.  .. ....        ..   XX XX  XX XXXX        XX          ..  .. ....                XX  XX XXXX       ",
" o.o o.o ........       ..  XXX XXX XXXXXXXX       XX          ..  .. ....     .          XX  XX XXXX     X ",
" o.   .o ...   ...      ..  XX   XX XXX   XXX      XX          ..  .. .....   ...         XX  XX XXXXX   XXX",
" ....... ..     ..      ..  XXXXXXX XX     XX      XX          ..  .. .. ........         XX  XX XX XXXXXXXX",
" ....... ..     ....    ..  XXXXXXX XX     XXXX    XX          ..  .. ..  .... ..         XX  XX XX  XXXX XX",
"o..   ..o..     ....    .. XXX   XXXXX     XXXX    XX          ..  .. ..       ..         XX  XX XX       XX",
"o.     .o...   ......  ... XX     XXXXX   XXXXXX  XXX          ..  .. ..       ..         XX  XX XX       XX",
"..     .. .......  ......  XX     XX XXXXXXX  XXXXXX           ...... .. ........         XXXXXX XX XXXXXXXX",
"..     ..  .....    ....   XX     XX  XXXXX    XXXX             ....  .. ........          XXXX  XX XXXXXXXX",
"  o....  .........   ...     XXXXX  XXXXXXXXX   XXX              .....  ....                XXXXX  XXXX     ",
" ....... .........  .....   XXXXXXX XXXXXXXXX  XXXXX            ....... ....               XXXXXXX XXXX     ",
"...   .....     .. ... ... XXX   XXXXX     XX XXX XXX          ...   ... ..               XXX   XXX XX      ",
"..     ..      ... ..   .. XX     XX      XXX XX   XX          ..     . .........         XX     X XXXXXXXXX",
"       ..      ..  ..   ..        XX      XX  XX   XX          ..       .........         XX       XXXXXXXXX",
"      ..o     ..o  ..   ..       XXX     XXX  XX   XX          .. ....   ..   o.o         XX XXXX   XX   XXX",
"     ...      ..   ..   ..      XXX      XX   XX   XX          ........  ..   ..          XXXXXXXX  XX   XX ",
"    ...      o.o   ..   ..     XXX      XXX   XX   XX          ...   ... ..  o.o          XXX   XXX XX  XXX ",
"   ...       ..   ....o ..    XXX       XX   XXXXX XX          ..     .. ..  ..           XX     XX XX  XX  ",
"  ...        ..   ........   XXX        XX   XXXXXXXX          ..     .. .. o.o           XX     XX XX XXX  ",
" ...        o.o    .. ....  XXX        XXX    XX XXXX          ..     .. .. ..            XX     XX XX XX   ",
"...    ..   ..     ... ... XXX    XX   XX     XXX XXX          ...   ... ....o            XXX   XXX XXXXX   ",
".........   ..      .......XXXXXXXXX   XX      XXXXXXX          .......  ....              XXXXXXX  XXXX    ",
".........   ..       ... . XXXXXXXXX   XX       XXX X            .....   ...                XXXXX   XXX     ",
".........  .....  .... ....XXXXXXXXX  XXXXX  XXXX XXXX.... ....  .....    .....  XXXX XXXX  XXXXX    XXXXX  ",
"......... ....... .... o...XXXXXXXXX XXXXXXX XXXX XXXX.... .... .......  ....... XXXX XXXX XXXXXXX  XXXXXXX ",
"..    ......   ... ..  ... XX    XXXXXX   XXX XX  XXX  o.o  .. ...   ......   ... XXX  XX XXX   XXXXXX   XXX",
"     ... ..     .. .. ...       XXX XX     XX XX XXX    ..  .. ..     ....     .   XX  XX XX     XXXX     X ",
"    ...  ...   ... .....       XXX  XXX   XXX XXXXX     o.o .. ..     ....         XXX XX XX     XXXX       ",
"   ....   .......  ....       XXXX   XXXXXXX  XXXX       .. .. ...   .....          XX XX XXX   XXXXX       ",
"  ......   .....   ....      XXXXXX   XXXXX   XXXX       o....  ....... ...  .      XXXXX  XXXXXXX XXX  X   ",
"   .  ... .......  ....o      X  XXX XXXXXXX  XXXXX       ....   .....   ......      XXXX   XXXXX   XXXXXX  ",
"       .....   ... .. ..          XXXXX   XXX XX XX       ....  .......   ....       XXXX  XXXXXXX   XXXX   ",
"       ....     .. .. o.o         XXXX     XX XX XXX     ..... ...   ...  ...       XXXXX XXX   XXX  XXX    ",
" .     ....     .. ..  ..   X     XXXX     XX XX  XX    ... .. ..     .. ...       XXX XX XX     XX XXX     ",
"...   ......   ... ..  o.o XXX   XXXXXX   XXX XX  XXX  ...  .. ...   ......    .. XXX  XX XXX   XXXXXX    XX",
" .......  ....... .... .... XXXXXXX  XXXXXXX XXXX XXXX...o .... ....... .........XXXX XXXX XXXXXXX XXXXXXXXX",
"  .....    .....  .... ....  XXXXX    XXXXX  XXXX XXXX.... ....  .....  .........XXXX XXXX  XXXXX  XXXXXXXXX",
"     ...   .....                XXX   XXXXX            . ...       ..   ......... X XXX       XX   XXXXXXXXX",
"    ....  .......              XXXX  XXXXXXX          .......      ..   .........XXXXXXX      XX   XXXXXXXXX",
"   o.... ...   ...            XXXXX XXX   XXX          ... ...     ..   ..    ... XXX XXX     XX   XX    XXX",
"   .. .. ..     ..            XX XX XX     XX          .... ..    o.o        ...  XXXX XX    XXX        XXX ",
"  o.o .. ..     ..           XXX XX XX     XX          ........   ..        ...   XXXXXXXX   XX        XXX  ",
"  ..  .. ..     ..           XX  XX XX     XX          .. o....   ..       ...    XX XXXXX   XX       XXX   ",
" o.o  .. ...   ...          XXX  XX XXX   XXX          ..   ..   o.o      ...     XX   XX   XXX      XXX    ",
" ..   ..  ........          XX   XX  XXXXXXXX          ..   ..   ..      ...      XX   XX   XX      XXX     ",
"o.o   ..   .... ..         XXX   XX   XXXX XX          ..   ..  o..     o..       XX   XX  XXX     XXX      ",
".........       ..         XXXXXXXXX       XX          ..   ..  ..      ..        XX   XX  XX      XX       ",
"......... .     ..         XXXXXXXXX X     XX          ..   .. ...      ..     .. XX   XX XXX      XX     XX",
"      .. ...   ...               XX XXX   XXX          ... ... ..     .....   ... XXX XXX XX     XXXXX   XXX",
"     .... .......               XXXX XXXXXXX            .....  ......... .......   XXXXX  XXXXXXXXX XXXXXXX ",
"     ....  .....                XXXX  XXXXX              ...   .........  ....o     XXX   XXXXXXXXX  XXXXX  ",
"........ ..  ....          XXXXXXXX XX  XXXX             ....    .....  ..     ..   XXXX    XXXXX  XX     XX",
"........ .. ......         XXXXXXXX XX XXXXXX           ......  ....... ..     ..  XXXXXX  XXXXXXX XX     XX",
"..       .. ..  ..         XX       XX XX  XX          ...  ......   ...o.     .o XXX  XXXXXX   XXXXX     XX",
"..       .. ..  ..         XX       XX XX  XX          ..    ....     ..o..   ..o XX    XXXX     XXXXX   XXX",
".. ....  .. ..  ..         XX XXXX  XX XX  XX          ..    ....     .. .......  XX    XXXX     XX XXXXXXX ",
"........ .. ..  ..         XXXXXXXX XX XX  XX          ..      ..     .. .......  XX      XX     XX XXXXXXX ",
"...   ..... ..  ..         XXX   XXXXX XX  XX          ..      ...   ... o.   .o  XX      XXX   XXX XX   XX ",
" .     .... ..  ..          X     XXXX XX  XX          ..       ........ o.o o.o  XX       XXXXXXXX XXX XXX ",
"       .... ..  ..                XXXX XX  XX          ..        .... ..  .o o.   XX        XXXX XX  XX XX  ",
"       .... ..  ..                XXXX XX  XX          ..             ..  .. ..   XX             XX  XX XX  ",
" .     .... ..  ..          X     XXXX XX  XX          ..       .     ..  o. .o   XX       X     XX  XX XX  ",
"...   ..... ..  ..         XXX   XXXXX XX  XX          ..      ...   ...  o...o   XX      XXX   XXX  XXXXX  ",
" ....... .. ......          XXXXXXX XX XXXXXX         ....      .......    ...   XXXX      XXXXXXX    XXX   ",
"  .....  ..  ....            XXXXX  XX  XXXX          ....       .....     ...   XXXX       XXXXX     XXX   "};
