/* XPM */
static char * Suits_xpm[] = {
/* width height num_colors chars_per_pixel */
"168 88 3 1",
/* colors */
" 	c None",
".	c #c00000",
"X	c black",
/* pixels */
"                                                                                                                                               .                        ",
"                                                                                                                                              ...                       ",
"                                                             X                                                                                ...                       ",
"                                                             X                                                                               .....                      ",
"                                                            XXX                                                                             .......                     ",
"                                                            XXX                                                                             .......                     ",
"                 XXXXXXX                                   XXXXX                                                                           .........                    ",
"               XXXXXXXXXXX                                 XXXXX                           ......           ......                        ...........                   ",
"               XXXXXXXXXXX                                XXXXXXX                        ..........       ..........                     .............                  ",
"              XXXXXXXXXXXXX                              XXXXXXXXX                      ............     ............                   ...............                 ",
"              XXXXXXXXXXXXX                             XXXXXXXXXXX                    ..............   ..............                  ...............                 ",
"             XXXXXXXXXXXXXXX                           XXXXXXXXXXXXX                   ............... ...............                 .................                ",
"             XXXXXXXXXXXXXXX                          XXXXXXXXXXXXXXX                 .................................               ...................               ",
"             XXXXXXXXXXXXXXX                         XXXXXXXXXXXXXXXXX                .................................             .......................             ",
"             XXXXXXXXXXXXXXX                        XXXXXXXXXXXXXXXXXXX              ...................................           .........................            ",
"              XXXXXXXXXXXXX                        XXXXXXXXXXXXXXXXXXXXX             ...................................          ...........................           ",
"              XXXXXXXXXXXXX                      XXXXXXXXXXXXXXXXXXXXXXXXX           ...................................         .............................          ",
"       XXXX    XXXXXXXXXXX    XXXX              XXXXXXXXXXXXXXXXXXXXXXXXXXX           .................................        .................................        ",
"     XXXXXXXX   XXXXXXXXX   XXXXXXXX           XXXXXXXXXXXXXXXXXXXXXXXXXXXXX          .................................       ...................................       ",
"   XXXXXXXXXXX   XXXXXXX   XXXXXXXXXXX        XXXXXXXXXXXXXXXXXXXXXXXXXXXXXXX         .................................     .......................................     ",
"   XXXXXXXXXXXX   XXXXX   XXXXXXXXXXXX       XXXXXXXXXXXXXXXXXXXXXXXXXXXXXXXXX         ...............................     .........................................    ",
"  XXXXXXXXXXXXXX   XXX   XXXXXXXXXXXXXX     XXXXXXXXXXXXXXXXXXXXXXXXXXXXXXXXXXX         .............................       .......................................     ",
"  XXXXXXXXXXXXXXX   X   XXXXXXXXXXXXXXX     XXXXXXXXXXXXXXXXXXXXXXXXXXXXXXXXXXX          ...........................          ...................................       ",
"  XXXXXXXXXXXXXXXX XXX XXXXXXXXXXXXXXXX     XXXXXXXXXXXXXXXXXXXXXXXXXXXXXXXXXXX           .........................            .................................        ",
"  XXXXXXXXXXXXXXXXXXXXXXXXXXXXXXXXXXXXX     XXXXXXXXXXXXXXXXXXXXXXXXXXXXXXXXXXX           .........................              .............................          ",
"  XXXXXXXXXXXXXXXX XXX XXXXXXXXXXXXXXXX     XXXXXXXXXXXXXXXXXXXXXXXXXXXXXXXXXXX            .......................                ...........................           ",
"  XXXXXXXXXXXXXXX   X   XXXXXXXXXXXXXXX     XXXXXXXXXXXXXXX  X  XXXXXXXXXXXXXXX             .....................                  .........................            ",
"  XXXXXXXXXXXXXX    X    XXXXXXXXXXXXXX     XXXXXXXXXXXXXX   X   XXXXXXXXXXXXXX              ...................                    .......................             ",
"   XXXXXXXXXXXX     X     XXXXXXXXXXXX       XXXXXXXXXXXX    X    XXXXXXXXXXXX                .................                       ...................               ",
"   XXXXXXXXXXX      X      XXXXXXXXXXX       XXXXXXXXXXX     X     XXXXXXXXXXX                 ...............                         .................                ",
"     XXXXXXXX       X       XXXXXXXX          XXXXXXXXX     XXX     XXXXXXXXX                   .............                           ...............                 ",
"       XXXX         X         XXXX              XXXXX       XXX       XXXXX                     .............                           ...............                 ",
"                    X                                       XXX                                  ...........                             .............                  ",
"                   XXX                                      XXX                                   .........                               ...........                   ",
"                   XXX                                      XXX                                   .........                                .........                    ",
"                   XXX                                     XXXXX                                   .......                                  .......                     ",
"                   XXX                                     XXXXX                                    .....                                   .......                     ",
"                  XXXXX                                    XXXXX                                     ...                                     .....                      ",
"                  XXXXX                                    XXXXX                                     ...                                      ...                       ",
"                 XXXXXXX                                  XXXXXXX                                     .                                       ...                       ",
"                XXX   XXX                                XXX   XXX                                    .                                        .                        ",
"                                                                         .                   X X                  X X                   .                    .          ",
"                               X                                        ...                  XXX                  XXX                   .                   ...         ",
"                               X                                        ...                  XXX                  XXX                  ...                  ...         ",
"         XXX                  XXX                                      .....                  X                   XXX                 .....                .....        ",
"        XXXXX                 XXX             .....   .....           .......                 X                    X                  .....               .......       ",
"       XXXXXXX               XXXXX           ....... .......         .........         XXXX   X   XXXX      XXXX   X   XXXX          .......             .........      ",
"       XXXXXXX              XXXXXXX         .................       ...........       XXXXXX  X  XXXXXX    XXXXXX  X  XXXXXX        .........           ...........     ",
"       XXXXXXX             XXXXXXXXX        .................      .............     XXXXXXXX X XXXXXXXX   XXXXXXX X XXXXXXX       ...........         .............    ",
"       XXXXXXX           XXXXXXXXXXXXX      .................     ...............    XXXXXXXXXXXXXXXXXXX   XXXXXXXXXXXXXXXXX      .............       ...............   ",
"   XXXX XXXXX XXXX      XXXXXXXXXXXXXXX     .................   ...................  XXXXXXXX X XXXXXXXX   XXXXXXXXXXXXXXXXX     ...............    ................... ",
"  XXXXXX XXX XXXXXX    XXXXXXXXXXXXXXXXX     ...............   .....................  XXXXXX XXX XXXXXX    XXXXXXXXXXXXXXXXX     ...............   .....................",
" XXXXXXXX X XXXXXXXX   XXXXXXXXXXXXXXXXX     ...............    ...................    XXXX XXXXX XXXX      XXXXXXXXXXXXXXX     .................   ................... ",
" XXXXXXXXXXXXXXXXXXX   XXXXXXXXXXXXXXXXX      .............       ...............          XXXXXXX           XXXXXXXXXXXXX      .................     ...............   ",
" XXXXXXXX X XXXXXXXX   XXXXXXX X XXXXXXX       ...........         .............           XXXXXXX             XXXXXXXXX        .................      .............    ",
"  XXXXXX  X  XXXXXX    XXXXXX  X  XXXXXX        .........           ...........            XXXXXXX              XXXXXXX         .................       ...........     ",
"   XXXX   X   XXXX      XXXX   X   XXXX          .......             .........             XXXXXXX               XXXXX           ....... .......         .........      ",
"          X                    X                  .....               .......               XXXXX                 XXX             .....   .....           .......       ",
"          X                   XXX                 .....                .....                 XXX                  XXX                                      .....        ",
"         XXX                  XXX                  ...                  ...                                        X                                        ...         ",
"         XXX                  XXX                   .                   ...                                        X                                        ...         ",
"         X X                  X X                   .                    .                                                                                   .          ",
"                                                                                                                                                                        ",
"                                                    .             XXX            XXX             .              .                                                       ",
"                      X                            ...             X              X             ...            ...                                                      ",
"      XXX            XXX         .... ....        .....            X              X             ...           .....                                                     ",
"     XXXXX          XXXXX       ...........      .......      XXX  X  XXX     XXX X XXX        .....         .......                                                    ",
"     XXXXX         XXXXXXX      ...........     .........    XXXXX X XXXXX   XXXXXXXXXXX      .......       .........                                                   ",
"   X  XXX  X      XXXXXXXXX     ...........    ...........   XXXXXXXXXXXXX   XXXXXXXXXXX     .........     ...........                                                  ",
"  XXXX X XXXX    XXXXXXXXXXX    ...........   .............   XXXX X XXXX    XXXXXXXXXXX    ...........   .............                                                 ",
" XXXXXXXXXXXXX   XXXXXXXXXXX     .........     ...........     X  XXX  X      XXXXXXXXX     ...........    ...........                                                  ",
" XXXXX X XXXXX   XXXXXXXXXXX      .......       .........        XXXXX         XXXXXXX      ...........     .........                                                   ",
"  XXX  X  XXX     XXX X XXX        .....         .......         XXXXX          XXXXX       ...........      .......                                                    ",
"       X              X             ...           .....           XXX            XXX         .... ....        .....                                                     ",
"       X              X             ...            ...                            X                            ...                                                      ",
"      XXX            XXX             .              .                                                           .                                                       ",
"                                                                                                                                                                        ",
"                                      .                                           .                                                                                     ",
"                X                     .          X          X          .          .                                                                                     ",
"    XXX         X       ... ...      ...         X          X         ...        ...                                                                                    ",
"    XXX        XXX     .........    .....    XXX X XXX  XXX X XXX    .....      .....                                                                                   ",
"    XXX       XXXXX    .........   .......   XXXXXXXXX  XXXXXXXXX   .......    .......                                                                                  ",
" XXX X XXX  XXXXXXXXX  ......... ........... XXX X XXX  XXXXXXXXX  ......... ...........                                                                                ",
" XXXXXXXXX  XXXXXXXXX   .......    .......      XXX       XXXXX    .........   .......                                                                                  ",
" XXX X XXX  XXX X XXX    .....      .....       XXX        XXX     .........    .....                                                                                   ",
"     X          X         ...        ...        XXX         X       ... ...      ...                                                                                    ",
"     X          X          .          .                     X                     .                                                                                     ",
"                                      .                                           .                                                                                     "};
