/* XPM */
static const char *bb[] = {
/* width height num_colors chars_per_pixel */
"    10     9        2            1",
/* colors */
". c #c0c0c0",
"# c #000000",
/* pixels */
"....#....#",
"...##...##",
"..###..###",
".####.####",
"##########",
".####.####",
"..###..###",
"...##...##",
"....#....#"
};
