/* XPM */
static const char * pic_dealcards[] = {
"14 14 2 1",
" 	c #c0c0c0",
".	c navy",
"   ....      .",
"  .......   ..",
" ...   ... ...",
"...     ......",
"..       .....",
"..      ......",
"..     .......",
"..    ........",
"..            ",
"...           ",
" ...          ",
"  ..          ",
"              ",
"              "};
