/* XPM */
static const char *fff[] = {
/* width height num_colors chars_per_pixel */
"    12    11        2            1",
/* colors */
". c #c0c0c0",
"# c #000000",
/* pixels */
"..........##",
"#....#....##",
"##...##...##",
"###..###..##",
"####.####.##",
"############",
"####.####.##",
"###..###..##",
"##...##...##",
"#....#....##",
"..........##"
};
