/* XPM */
static const char * pic_gethint[] = {
/* width height num_colors chars_per_pixel */
"    11    14        2            1",
/* colors */
". c #000000",
"# c #c0c0c0",
/* pixels */
"###########",
"###########",
"###.....###",
"##..###..##",
"##..###..##",
"#######..##",
"######..###",
"#####..####",
"####..#####",
"###########",
"####..#####",
"####..#####",
"###########",
"###########"
};
