/* XPM */
static const char * undomove[] = {
"14 14 2 1",
" 	c navy",
".	c #c0c0c0",
" ......    ...",
"  ...       ..",
"   .   ...   .",
"      .....   ",
"     .......  ",
"      ......  ",
"       .....  ",
"        ....  ",
"............  ",
"...........   ",
"..........   .",
"..........  ..",
"..............",
".............."};
